<svg xmlns="http://www.w3.org/2000/svg" width="258" height="30" fill="#000"><path fill="#000" d="M16.516 22H13v-8.555c-1.318.47-2.495.806-3.53 1.011-1.026.205-2.06.308-3.106.308-2.021 0-3.584-.474-4.687-1.421-1.094-.957-1.64-2.31-1.64-4.058V.584h3.515v7.88c0 1.114.273 1.944.82 2.491.557.547 1.465.82 2.725.82.927 0 1.83-.083 2.71-.249.878-.175 1.943-.473 3.193-.893V.584h3.516V22zm15.41 0l-.689-2.256h-.117c-.781.986-1.567 1.66-2.358 2.022-.791.351-1.807.527-3.047.527-1.592 0-2.837-.43-3.735-1.29-.89-.858-1.334-2.074-1.334-3.647 0-1.67.62-2.93 1.86-3.779 1.241-.85 3.13-1.313 5.67-1.392l2.798-.087v-.865c0-1.035-.244-1.806-.733-2.314-.478-.518-1.225-.776-2.241-.776-.83 0-1.626.122-2.388.366-.761.244-1.494.532-2.197.864l-1.113-2.46c.879-.46 1.84-.807 2.886-1.04a13.028 13.028 0 012.959-.367c2.06 0 3.613.45 4.658 1.348 1.054.898 1.582 2.31 1.582 4.233V22h-2.461zm-5.127-2.344c1.25 0 2.25-.346 3.003-1.04.762-.703 1.142-1.684 1.142-2.944v-1.406l-2.08.088c-1.62.058-2.803.332-3.545.82-.732.478-1.098 1.216-1.098 2.212 0 .722.215 1.284.644 1.684.43.39 1.075.586 1.934.586zm18.926 2.637c-2.452 0-4.317-.713-5.596-2.139-1.27-1.435-1.904-3.49-1.904-6.167 0-2.724.664-4.819 1.992-6.284 1.338-1.465 3.266-2.197 5.786-2.197 1.709 0 3.247.317 4.614.952l-1.04 2.769c-1.455-.567-2.656-.85-3.603-.85-2.803 0-4.204 1.86-4.204 5.581 0 1.816.346 3.184 1.04 4.102.703.908 1.728 1.362 3.076 1.362 1.533 0 2.983-.381 4.35-1.143v3.003a6.787 6.787 0 01-1.977.777c-.694.156-1.538.234-2.534.234zM66.218 5.799v2.695h-5.274V22h-3.457V8.494h-5.273V5.8h14.004zm6.562 0v6.504h7.632V5.799h3.442V22h-3.442v-6.987H72.78V22h-3.442V5.799h3.442zm19.453 6.474h3.282c2.265 0 3.94.391 5.024 1.172 1.084.782 1.626 1.953 1.626 3.516 0 1.67-.566 2.93-1.699 3.78-1.123.84-2.774 1.259-4.951 1.259H88.79V5.799h3.442v6.474zm6.519 4.776c0-.81-.303-1.377-.908-1.7-.596-.322-1.455-.483-2.578-.483h-3.033v4.585h2.593c1.387 0 2.388-.195 3.003-.586.615-.39.923-.996.923-1.816zM108.171 22h-3.457V5.799h3.457V22zm12.012.293c-2.52 0-4.493-.732-5.918-2.197-1.416-1.475-2.124-3.501-2.124-6.08 0-2.646.659-4.726 1.977-6.24 1.319-1.513 3.13-2.27 5.435-2.27 2.138 0 3.828.65 5.068 1.948 1.24 1.299 1.86 3.086 1.86 5.361v1.86h-10.795c.048 1.573.473 2.784 1.274 3.634.801.84 1.929 1.26 3.384 1.26.957 0 1.845-.088 2.666-.264.83-.186 1.719-.489 2.666-.909v2.798c-.84.4-1.69.684-2.549.85-.859.166-1.841.249-2.944.249zm-.63-14.18c-1.094 0-1.973.347-2.637 1.04-.654.694-1.045 1.704-1.172 3.032h7.354c-.02-1.337-.342-2.348-.967-3.032-.625-.693-1.485-1.04-2.578-1.04zm27.934 10.591l.191-.703c.4-1.455.747-2.573 1.04-3.355l3.633-8.847h4.585V22h-3.179V8.919l-.264.879c-.439 1.572-.81 2.73-1.113 3.472L148.835 22h-2.607l-3.545-8.79c-.489-1.269-.938-2.7-1.348-4.291V22h-3.149V5.799h4.555l3.516 8.584c.312.79.722 2.231 1.23 4.321zM171.994 22l-.688-2.256h-.118c-.781.986-1.567 1.66-2.358 2.022-.791.351-1.807.527-3.047.527-1.592 0-2.837-.43-3.735-1.29-.889-.858-1.333-2.074-1.333-3.647 0-1.67.62-2.93 1.86-3.779 1.24-.85 3.13-1.313 5.669-1.392l2.798-.087v-.865c0-1.035-.244-1.806-.732-2.314-.479-.518-1.226-.776-2.242-.776-.83 0-1.626.122-2.387.366-.762.244-1.494.532-2.198.864l-1.113-2.46a11.769 11.769 0 012.886-1.04 13.027 13.027 0 012.959-.367c2.06 0 3.613.45 4.658 1.348 1.055.898 1.582 2.31 1.582 4.233V22h-2.461zm-5.127-2.344c1.25 0 2.251-.346 3.003-1.04.762-.703 1.143-1.684 1.143-2.944v-1.406l-2.08.088c-1.621.058-2.803.332-3.545.82-.733.478-1.099 1.216-1.099 2.212 0 .722.215 1.284.645 1.684.429.39 1.074.586 1.933.586zm18.926 2.637c-2.451 0-4.316-.713-5.596-2.139-1.269-1.435-1.904-3.49-1.904-6.167 0-2.724.664-4.819 1.992-6.284 1.338-1.465 3.267-2.197 5.786-2.197 1.709 0 3.247.317 4.615.952l-1.04 2.769c-1.456-.567-2.657-.85-3.604-.85-2.803 0-4.204 1.86-4.204 5.581 0 1.816.347 3.184 1.04 4.102.703.908 1.728 1.362 3.076 1.362 1.533 0 2.984-.381 4.351-1.143v3.003a6.8 6.8 0 01-1.978.777c-.693.156-1.538.234-2.534.234zm20.493-16.494v2.695h-5.273V22h-3.457V8.494h-5.274V5.8h14.004zm10.195 16.494c-2.519 0-4.492-.732-5.918-2.197-1.416-1.475-2.124-3.501-2.124-6.08 0-2.646.66-4.726 1.978-6.24 1.318-1.513 3.13-2.27 5.435-2.27 2.138 0 3.828.65 5.068 1.948 1.24 1.299 1.86 3.086 1.86 5.361v1.86h-10.796c.049 1.573.474 2.784 1.275 3.634.801.84 1.929 1.26 3.384 1.26.957 0 1.845-.088 2.666-.264.83-.186 1.718-.489 2.666-.909v2.798c-.84.4-1.69.684-2.549.85-.86.166-1.841.249-2.945.249zm-.629-14.18c-1.094 0-1.973.347-2.637 1.04-.654.694-1.045 1.704-1.172 3.032h7.353c-.019-1.337-.341-2.348-.966-3.032-.625-.693-1.485-1.04-2.578-1.04zm19.057 14.18c-2.051 0-3.642-.737-4.775-2.212h-.205c.136 1.367.205 2.197.205 2.49v6.636h-3.443V5.799h2.784c.078.303.239 1.025.483 2.168h.176c1.074-1.64 2.685-2.461 4.834-2.461 2.021 0 3.594.732 4.717 2.197 1.132 1.465 1.699 3.52 1.699 6.167s-.576 4.712-1.729 6.196c-1.142 1.485-2.724 2.227-4.746 2.227zm-.835-13.975c-1.367 0-2.368.4-3.003 1.202-.625.8-.937 2.08-.937 3.837v.513c0 1.973.312 3.403.937 4.292.625.879 1.646 1.319 3.062 1.319 1.191 0 2.109-.489 2.754-1.465.644-.977.967-2.368.967-4.175 0-1.817-.323-3.189-.967-4.116-.635-.938-1.573-1.407-2.813-1.407zM255.52 22l-.689-2.256h-.117c-.781.986-1.568 1.66-2.359 2.022-.791.351-1.806.527-3.046.527-1.592 0-2.837-.43-3.736-1.29-.888-.858-1.333-2.074-1.333-3.647 0-1.67.62-2.93 1.861-3.779 1.24-.85 3.129-1.313 5.669-1.392l2.797-.087v-.865c0-1.035-.244-1.806-.732-2.314-.479-.518-1.226-.776-2.241-.776-.83 0-1.626.122-2.388.366s-1.494.532-2.197.864l-1.113-2.46c.878-.46 1.84-.807 2.885-1.04a13.027 13.027 0 012.959-.367c2.061 0 3.614.45 4.658 1.348 1.055.898 1.582 2.31 1.582 4.233V22h-2.46zm-5.127-2.344c1.25 0 2.251-.346 3.003-1.04.761-.703 1.142-1.684 1.142-2.944v-1.406l-2.08.088c-1.621.058-2.803.332-3.545.82-.732.478-1.099 1.216-1.099 2.212 0 .722.215 1.284.645 1.684.43.39 1.074.586 1.934.586z"/></svg>
