<?xml version="1.0" encoding="utf-8"?><svg viewBox="0 0 48 66" xmlns="http://www.w3.org/2000/svg" xmlns:xlink="http://www.w3.org/1999/xlink"><style>:root>svg{display:none}:root>svg:target{display:block}</style><svg fill="none" viewBox="0 0 36 31" id="icon-car" xmlns="http://www.w3.org/2000/svg"><path fill="#0085FF" d="M35 13.216h1v-.295l-.16-.248-.84.543zm-34 0l-.84-.543-.16.248v.295h1zm5.163-7.984l-.84-.543.84.543zm23.674 0l.84-.543-.84.543zM8.286 24.498v-1h-1v1h1zm19.428 0h1v-1h-1v1zM34 13.216v13.537h2V13.216h-2zm-32.16.543l5.163-7.984-1.68-1.086L.16 12.673l1.68 1.086zm10.57-10.81h11.18v-2H12.41v2zm16.587 2.826l5.163 7.984 1.68-1.086-5.163-7.984-1.68 1.086zM5.857 28.008H3.43v2h2.428v-2zm1.429-3.51v2.255h2v-2.255h-2zm25.285 3.51h-2.428v2h2.428v-2zm-3.857-1.255v-2.255h-2v2.255h2zm-1-3.255H8.286v2h19.428v-2zM2 26.753V13.216H0v13.537h2zm28.143 1.255c-.86 0-1.429-.63-1.429-1.255h-2c0 1.866 1.607 3.255 3.429 3.255v-2zm-24.286 2c1.823 0 3.429-1.39 3.429-3.255h-2c0 .624-.569 1.255-1.429 1.255v2zm-2.428-2c-.86 0-1.429-.63-1.429-1.255H0c0 1.866 1.606 3.255 3.429 3.255v-2zM23.59 2.948c2.241 0 4.285 1.092 5.406 2.826l1.68-1.086c-1.513-2.34-4.211-3.74-7.086-3.74v2zM7.003 5.775c1.12-1.734 3.165-2.826 5.406-2.826v-2c-2.875 0-5.573 1.4-7.086 3.74l1.68 1.086zM34 26.753c0 .624-.568 1.255-1.429 1.255v2c1.823 0 3.429-1.39 3.429-3.255h-2zM4.643 20.988h7.286v-2H4.643v2zm26.714-2h-7.286v2h7.286v-2zM7.071 14.223H28.93v-2H7.07v2z"/></svg><svg fill="none" viewBox="0 0 33 32" id="icon-covid" xmlns="http://www.w3.org/2000/svg"><path fill="#0085FF" d="M9.857 24.34h-1a1 1 0 001 1v-1zm13.286 0v1a1 1 0 001-1h-1zm-13.286 1h13.286v-2H9.857v2zm14.286-1v-4.142h-2v4.142h2zM8.857 20.198v4.142h2v-4.142h-2zm7.643-7.212c-4.157 0-7.643 3.167-7.643 7.212h2c0-2.817 2.462-5.212 5.643-5.212v-2zm7.643 7.212c0-4.045-3.486-7.212-7.643-7.212v2c3.18 0 5.643 2.395 5.643 5.212h2zM31 24.34c0 .494-.246 1.067-.906 1.692-.662.627-1.673 1.238-3.006 1.772-2.66 1.066-6.403 1.748-10.588 1.748v2c4.375 0 8.382-.709 11.332-1.891 1.473-.59 2.731-1.318 3.638-2.177.909-.862 1.53-1.924 1.53-3.144h-2zm-14.5 5.212c-4.185 0-7.928-.682-10.588-1.748-1.333-.534-2.344-1.145-3.006-1.772C2.246 25.407 2 24.834 2 24.34H0c0 1.22.621 2.282 1.53 3.144.907.859 2.165 1.586 3.638 2.177 2.95 1.182 6.957 1.891 11.332 1.891v-2zM2 24.34c0-.489.24-1.052.88-1.668.643-.619 1.627-1.223 2.927-1.755l-.757-1.85c-1.44.588-2.67 1.311-3.556 2.163C.605 22.085 0 23.135 0 24.34h2zm25.193-3.423c1.3.532 2.284 1.136 2.927 1.755.64.616.88 1.179.88 1.668h2c0-1.205-.605-2.255-1.494-3.11-.886-.852-2.116-1.575-3.556-2.164l-.757 1.851zM16.5 8.844c-1.958 0-3.429-1.469-3.429-3.142h-2c0 2.902 2.495 5.142 5.429 5.142v-2zm3.429-3.142c0 1.673-1.471 3.142-3.429 3.142v2c2.934 0 5.429-2.24 5.429-5.142h-2zM16.5 2.561c1.958 0 3.429 1.468 3.429 3.141h2c0-2.901-2.495-5.141-5.429-5.141v2zm0-2c-2.934 0-5.429 2.24-5.429 5.141h2c0-1.673 1.471-3.141 3.429-3.141v-2z"/></svg><svg fill="none" viewBox="0 0 32 31" id="icon-guarantee" xmlns="http://www.w3.org/2000/svg"><path fill="#0085FF" d="M31.995 13.668a.91.91 0 00-.368-.634l-2.535-1.865.922-2.956a.892.892 0 00-.086-.723.94.94 0 00-.602-.434l-3.096-.702-.396-3.065a.911.911 0 00-.38-.627.964.964 0 00-.732-.158l-3.123.582L19.954.442a.942.942 0 00-.61-.422.965.965 0 00-.735.144L16 1.93 13.39.164a.965.965 0 00-.734-.144.941.941 0 00-.61.422L10.4 3.086l-3.123-.582a.965.965 0 00-.731.158.91.91 0 00-.382.627L5.77 6.354l-3.097.702a.94.94 0 00-.601.434.892.892 0 00-.086.723l.922 2.956-2.535 1.865a.899.899 0 00-.144 1.329l2.08 2.336-1.534 2.705a.892.892 0 00-.07.725c.08.24.26.438.495.546l2.879 1.312-.27 3.078a.899.899 0 00.239.69.955.955 0 00.681.303l3.18.061 1.042 2.918c.086.24.27.433.507.536a.97.97 0 00.75.008l2.93-1.2 2.175 2.254a.956.956 0 001.375 0l2.174-2.254 2.93 1.2a.97.97 0 00.75-.008.925.925 0 00.507-.536l1.042-2.918 3.18-.061a.954.954 0 00.681-.303.9.9 0 00.239-.69l-.27-3.078 2.88-1.312a.925.925 0 00.495-.546.892.892 0 00-.07-.725L29.69 16.7l2.08-2.336a.9.9 0 00.225-.695zm-4.272 3.356l1.366 2.408-2.563 1.169a.912.912 0 00-.538.906l.24 2.74-2.83.054a.94.94 0 00-.872.615l-.928 2.598-2.609-1.068a.962.962 0 00-1.053.217L16 28.67l-1.936-2.007a.955.955 0 00-1.053-.217l-2.609 1.068-.928-2.598a.94.94 0 00-.871-.615l-2.83-.054.239-2.74a.912.912 0 00-.539-.907l-2.562-1.168 1.366-2.408a.895.895 0 00-.112-1.04l-1.852-2.08 2.256-1.66a.9.9 0 00.333-.996l-.82-2.631 2.756-.625a.926.926 0 00.72-.778l.353-2.728 2.78.518a.953.953 0 00.984-.426l1.464-2.353 2.322 1.571a.965.965 0 001.078 0l2.322-1.571 1.464 2.353a.953.953 0 00.984.426l2.78-.518.352 2.728c.05.38.337.69.721.778l2.757.625-.821 2.631a.9.9 0 00.333.995l2.256 1.66-1.852 2.08a.895.895 0 00-.112 1.041z"/><path fill="#0085FF" d="M16 6.703c-4.972 0-9.017 3.93-9.017 8.759 0 4.83 4.045 8.76 9.017 8.76 4.972 0 9.017-3.93 9.017-8.76S20.972 6.702 16 6.702zm0 15.687c-3.933 0-7.133-3.108-7.133-6.928s3.2-6.928 7.133-6.928 7.133 3.108 7.133 6.928-3.2 6.928-7.133 6.928z"/><path fill="#0085FF" d="M19.695 12.854a.962.962 0 00-1.333 0l-3.371 3.274-1.353-1.313a.962.962 0 00-1.332 0 .897.897 0 000 1.294l2.018 1.961a.954.954 0 00.667.268c.24 0 .482-.09.666-.268l4.038-3.922a.897.897 0 000-1.294z"/></svg><svg fill="none" viewBox="0 0 37 28" id="icon-money" xmlns="http://www.w3.org/2000/svg"><path stroke="#0085FF" stroke-width="2" d="M27.25 21.1H31v-3.768M27.25 6.025H31v3.769M9.75 6.025H6v3.769m0 7.538V21.1h3.75m8.75-2.513c-2.761 0-5-2.25-5-5.025 0-2.775 2.239-5.025 5-5.025s5 2.25 5 5.025c0 2.775-2.239 5.025-5 5.025zM3.5 1h30C34.88 1 36 2.125 36 3.513v20.1a2.506 2.506 0 01-2.5 2.513h-30C2.12 26.126 1 25 1 23.613v-20.1A2.506 2.506 0 013.5 1z"/></svg><svg fill="none" viewBox="0 0 35 64" id="icon-one" xmlns="http://www.w3.org/2000/svg"><path stroke="#0085FF" stroke-width="2" d="M32.705 63h1V1.035H21.937l-.273.218-19.318 15.38-.785.625.627.783 6.112 7.63.626.78.78-.627 6.89-5.535v-.001c.6-.48 1.496-1.3 2.681-2.45l-.122 3.729h0v.011l-.123 5.701V63h13.673z"/></svg><svg fill="none" viewBox="0 0 32 32" id="icon-smile" xmlns="http://www.w3.org/2000/svg"><path fill="#0085FF" d="M9.571 16.326v-1a1 1 0 00-1 1h1zm12.858 0h1a1 1 0 00-1-1v1zm0-1H9.57v2h12.86v-2zM16 23.54c4.15 0 7.429-3.12 7.429-7.213h-2c0 2.925-2.318 5.213-5.429 5.213v2zm-7.429-7.213c0 4.094 3.278 7.213 7.429 7.213v-2c-3.111 0-5.429-2.288-5.429-5.213h-2zM16 29.822c-7.764 0-14-6.074-14-13.496H0c0 8.59 7.196 15.496 16 15.496v-2zm14-13.496c0 7.422-6.235 13.496-14 13.496v2c8.804 0 16-6.906 16-15.496h-2zM16 2.831c7.765 0 14 6.074 14 13.495h2C32 7.736 24.804.831 16 .831v2zm0-2C7.196.83 0 7.736 0 16.326h2C2 8.905 8.236 2.831 16 2.831v-2zM8.5 13.185h2.143v-2H8.5v2zm12.857 0H23.5v-2h-2.143v2z"/></svg><svg fill="none" viewBox="0 0 19 19" id="icon-tel" xmlns="http://www.w3.org/2000/svg"><path stroke="#7f7f7f" stroke-width="1.5" d="M6.123 1.042H3.43A2.432 2.432 0 001 3.476v2.435c0 6.724 5.437 12.175 12.143 12.175h2.428A2.432 2.432 0 0018 15.65v-1.683c0-.46-.26-.882-.671-1.089l-2.934-1.47a1.213 1.213 0 00-1.695.704l-.36 1.088a1.468 1.468 0 01-1.682.978 7.353 7.353 0 01-5.76-5.775 1.473 1.473 0 01.976-1.685l1.346-.45c.602-.201.948-.833.794-1.45l-.712-2.854a1.215 1.215 0 00-1.178-.922z"/></svg><svg fill="none" viewBox="0 0 47 66" id="icon-three" xmlns="http://www.w3.org/2000/svg"><path stroke="#0085FF" stroke-width="2" d="M41.665 35.365c-2.021-1.91-4.716-3.247-8.03-4.057 2.692-1.09 4.923-2.634 6.666-4.65 2.44-2.822 3.648-6.245 3.648-10.21 0-4.804-1.958-8.613-5.84-11.32C34.3 2.455 29.18 1.174 22.851 1.174c-7.757 0-14.49 2.02-20.15 6.095l-.785.565.54.803 5.865 8.737.549.817.825-.535c2.441-1.583 4.616-2.67 6.53-3.292 1.961-.627 3.868-.936 5.723-.936 2.737 0 4.606.55 5.775 1.483 1.126.9 1.756 2.277 1.756 4.325 0 2.673-.95 4.39-2.733 5.406-1.9 1.071-5.075 1.674-9.679 1.674h-5.634v11.721h5.552c4.996 0 8.46.59 10.537 1.654.998.51 1.706 1.176 2.173 1.987.47.816.728 1.84.728 3.111 0 2.923-.915 4.853-2.575 6.035-1.744 1.243-4.582 1.948-8.689 1.948-2.643 0-5.319-.357-8.03-1.075-2.728-.722-5.218-1.655-7.474-2.796l-1.45-.735V61.24l.605.26c5.177 2.223 11.084 3.321 17.703 3.321 7.885 0 14.107-1.621 18.531-5.004l.003-.003c4.454-3.435 6.665-8.239 6.665-14.286 0-4.19-1.325-7.618-4.048-10.162z"/></svg><svg fill="none" viewBox="0 0 48 65" id="icon-two" xmlns="http://www.w3.org/2000/svg"><path stroke="#0085FF" stroke-width="2" d="M45.287 64h1V51.336H21.071l6.48-6.101c5.142-4.704 8.771-8.37 10.847-10.977 2.096-2.6 3.657-5.159 4.66-7.677 1.033-2.558 1.547-5.283 1.547-8.165 0-3.347-.84-6.355-2.538-8.99-1.695-2.631-4.072-4.664-7.096-6.104-3.027-1.442-6.487-2.148-10.356-2.148-2.907 0-5.559.293-7.948.89-2.372.565-4.571 1.387-6.592 2.468-2.035 1.09-4.545 2.92-7.518 5.453l-.758.645.642.761 6.89 8.162.64.757.762-.631c2.334-1.931 4.55-3.4 6.65-4.425 2.058-1.003 4.165-1.498 6.33-1.498 2.034 0 3.538.536 4.624 1.508h0l.007.007c1.055.926 1.67 2.397 1.67 4.622 0 1.485-.277 2.918-.831 4.304-.557 1.392-1.485 2.951-2.815 4.68-1.329 1.7-4.201 4.82-8.66 9.387l-.002.002L2.658 53.478l-.289.293V64h42.918z"/></svg><svg fill="none" viewBox="0 0 35 35" id="icon-whatsapp" xmlns="http://www.w3.org/2000/svg"><path fill="#42AD27" d="M4.3 27.401l.894.447.277-.553-.372-.495-.8.601zm3.299 3.3l.6-.8-.494-.372-.553.277.447.895zM1 34l-.894-.447a1 1 0 001.341 1.341L1 34zm9.429-23.571l-.555-.832a1 1 0 00-.445.832h1zM24.57 24.57v1a1 1 0 00.832-.445l-.832-.555zM14.564 11.667l.986-.164-.986.164zm.328 1.973l-.986.164.986-.165zm-1.017 2.348l.554.832-.554-.832zm11.031 8.081l-.832-.555.832.555zm-1.573-3.633l.164-.986-.164.986zm-1.973-.328l-.164.986.164-.986zm-2.348 1.017l-.832-.554.832.554zM0 17.5c0 3.939 1.303 7.576 3.5 10.502L5.099 26.8A15.427 15.427 0 012 17.5H0zM17.5 0C7.835 0 0 7.835 0 17.5h2C2 8.94 8.94 2 17.5 2V0zM35 17.5C35 7.835 27.165 0 17.5 0v2C26.06 2 33 8.94 33 17.5h2zM17.5 35C27.165 35 35 27.165 35 17.5h-2C33 26.06 26.06 33 17.5 33v2zM6.998 31.5A17.427 17.427 0 0017.5 35v-2c-3.49 0-6.71-1.153-9.3-3.099L6.998 31.5zm-5.55 3.394l6.598-3.3-.894-1.788-6.6 3.3.895 1.788zm1.957-7.94l-3.3 6.599 1.79.894 3.299-6.599-1.789-.894zM9.43 10.429v2.357h2v-2.357h-2zM22.214 25.57h2.357v-2h-2.357v2zM9.43 12.786c0 7.061 5.724 12.785 12.785 12.785v-2c-5.956 0-10.785-4.829-10.785-10.785h-2zm1.554-1.525l.503-.335-1.11-1.664-.502.335 1.11 1.664zm2.594.57l.329 1.973 1.973-.329-.329-1.972-1.973.329zm-.257 3.325l-2.268 1.512 1.11 1.664 2.267-1.512-1.109-1.664zm.586-1.352a1.357 1.357 0 01-.586 1.352l1.11 1.664a3.357 3.357 0 001.449-3.345l-1.973.329zm-2.42-2.878a1.357 1.357 0 012.091.906l1.973-.329c-.4-2.403-3.147-3.593-5.174-2.241l1.11 1.664zm13.918 14.2l.334-.502-1.664-1.11-.335.503 1.665 1.11zm-1.907-5.676l-1.972-.329-.329 1.973 1.972.329.329-1.973zm-5.317 1.12l-1.512 2.268 1.664 1.11 1.512-2.268-1.664-1.11zm3.345-1.449a3.357 3.357 0 00-3.345 1.45l1.664 1.109a1.357 1.357 0 011.352-.586l.329-1.973zm4.213 5.503c1.352-2.027.162-4.773-2.241-5.174l-.329 1.973a1.357 1.357 0 01.906 2.091l1.664 1.11z"/></svg></svg>