<svg xmlns="http://www.w3.org/2000/svg" width="35" height="35" fill="none"><path fill="#42AD27" d="M4.3 27.401l.894.447.277-.553-.372-.495-.8.601zm3.299 3.3l.6-.8-.494-.372-.553.277.447.895zM1 34l-.894-.447a1 1 0 001.341 1.341L1 34zm9.429-23.571l-.555-.832a1 1 0 00-.445.832h1zM24.57 24.57v1a1 1 0 00.832-.445l-.832-.555zM14.564 11.667l.986-.164-.986.164zm.328 1.973l-.986.164.986-.165zm-1.017 2.348l.554.832-.554-.832zm11.031 8.081l-.832-.555.832.555zm-1.573-3.633l.164-.986-.164.986zm-1.973-.328l-.164.986.164-.986zm-2.348 1.017l-.832-.554.832.554zM0 17.5c0 3.939 1.303 7.576 3.5 10.502L5.099 26.8A15.427 15.427 0 012 17.5H0zM17.5 0C7.835 0 0 7.835 0 17.5h2C2 8.94 8.94 2 17.5 2V0zM35 17.5C35 7.835 27.165 0 17.5 0v2C26.06 2 33 8.94 33 17.5h2zM17.5 35C27.165 35 35 27.165 35 17.5h-2C33 26.06 26.06 33 17.5 33v2zM6.998 31.5A17.427 17.427 0 0017.5 35v-2c-3.49 0-6.71-1.153-9.3-3.099L6.998 31.5zm-5.55 3.394l6.598-3.3-.894-1.788-6.6 3.3.895 1.788zm1.957-7.94l-3.3 6.599 1.79.894 3.299-6.599-1.789-.894zM9.43 10.429v2.357h2v-2.357h-2zM22.214 25.57h2.357v-2h-2.357v2zM9.43 12.786c0 7.061 5.724 12.785 12.785 12.785v-2c-5.956 0-10.785-4.829-10.785-10.785h-2zm1.554-1.525l.503-.335-1.11-1.664-.502.335 1.11 1.664zm2.594.57l.329 1.973 1.973-.329-.329-1.972-1.973.329zm-.257 3.325l-2.268 1.512 1.11 1.664 2.267-1.512-1.109-1.664zm.586-1.352a1.357 1.357 0 01-.586 1.352l1.11 1.664a3.357 3.357 0 001.449-3.345l-1.973.329zm-2.42-2.878a1.357 1.357 0 012.091.906l1.973-.329c-.4-2.403-3.147-3.593-5.174-2.241l1.11 1.664zm13.918 14.2l.334-.502-1.664-1.11-.335.503 1.665 1.11zm-1.907-5.676l-1.972-.329-.329 1.973 1.972.329.329-1.973zm-5.317 1.12l-1.512 2.268 1.664 1.11 1.512-2.268-1.664-1.11zm3.345-1.449a3.357 3.357 0 00-3.345 1.45l1.664 1.109a1.357 1.357 0 011.352-.586l.329-1.973zm4.213 5.503c1.352-2.027.162-4.773-2.241-5.174l-.329 1.973a1.357 1.357 0 01.906 2.091l1.664 1.11z"/></svg>