<svg xmlns="http://www.w3.org/2000/svg" width="33" height="32" fill="none"><path fill="#0085FF" d="M9.857 24.34h-1a1 1 0 001 1v-1zm13.286 0v1a1 1 0 001-1h-1zm-13.286 1h13.286v-2H9.857v2zm14.286-1v-4.142h-2v4.142h2zM8.857 20.198v4.142h2v-4.142h-2zm7.643-7.212c-4.157 0-7.643 3.167-7.643 7.212h2c0-2.817 2.462-5.212 5.643-5.212v-2zm7.643 7.212c0-4.045-3.486-7.212-7.643-7.212v2c3.18 0 5.643 2.395 5.643 5.212h2zM31 24.34c0 .494-.246 1.067-.906 1.692-.662.627-1.673 1.238-3.006 1.772-2.66 1.066-6.403 1.748-10.588 1.748v2c4.375 0 8.382-.709 11.332-1.891 1.473-.59 2.731-1.318 3.638-2.177.909-.862 1.53-1.924 1.53-3.144h-2zm-14.5 5.212c-4.185 0-7.928-.682-10.588-1.748-1.333-.534-2.344-1.145-3.006-1.772C2.246 25.407 2 24.834 2 24.34H0c0 1.22.621 2.282 1.53 3.144.907.859 2.165 1.586 3.638 2.177 2.95 1.182 6.957 1.891 11.332 1.891v-2zM2 24.34c0-.489.24-1.052.88-1.668.643-.619 1.627-1.223 2.927-1.755l-.757-1.85c-1.44.588-2.67 1.311-3.556 2.163C.605 22.085 0 23.135 0 24.34h2zm25.193-3.423c1.3.532 2.284 1.136 2.927 1.755.64.616.88 1.179.88 1.668h2c0-1.205-.605-2.255-1.494-3.11-.886-.852-2.116-1.575-3.556-2.164l-.757 1.851zM16.5 8.844c-1.958 0-3.429-1.469-3.429-3.142h-2c0 2.902 2.495 5.142 5.429 5.142v-2zm3.429-3.142c0 1.673-1.471 3.142-3.429 3.142v2c2.934 0 5.429-2.24 5.429-5.142h-2zM16.5 2.561c1.958 0 3.429 1.468 3.429 3.141h2c0-2.901-2.495-5.141-5.429-5.141v2zm0-2c-2.934 0-5.429 2.24-5.429 5.141h2c0-1.673 1.471-3.141 3.429-3.141v-2z"/></svg>