<svg xmlns="http://www.w3.org/2000/svg" width="36" height="31" fill="none"><path fill="#0085FF" d="M35 13.216h1v-.295l-.16-.248-.84.543zm-34 0l-.84-.543-.16.248v.295h1zm5.163-7.984l-.84-.543.84.543zm23.674 0l.84-.543-.84.543zM8.286 24.498v-1h-1v1h1zm19.428 0h1v-1h-1v1zM34 13.216v13.537h2V13.216h-2zm-32.16.543l5.163-7.984-1.68-1.086L.16 12.673l1.68 1.086zm10.57-10.81h11.18v-2H12.41v2zm16.587 2.826l5.163 7.984 1.68-1.086-5.163-7.984-1.68 1.086zM5.857 28.008H3.43v2h2.428v-2zm1.429-3.51v2.255h2v-2.255h-2zm25.285 3.51h-2.428v2h2.428v-2zm-3.857-1.255v-2.255h-2v2.255h2zm-1-3.255H8.286v2h19.428v-2zM2 26.753V13.216H0v13.537h2zm28.143 1.255c-.86 0-1.429-.63-1.429-1.255h-2c0 1.866 1.607 3.255 3.429 3.255v-2zm-24.286 2c1.823 0 3.429-1.39 3.429-3.255h-2c0 .624-.569 1.255-1.429 1.255v2zm-2.428-2c-.86 0-1.429-.63-1.429-1.255H0c0 1.866 1.606 3.255 3.429 3.255v-2zM23.59 2.948c2.241 0 4.285 1.092 5.406 2.826l1.68-1.086c-1.513-2.34-4.211-3.74-7.086-3.74v2zM7.003 5.775c1.12-1.734 3.165-2.826 5.406-2.826v-2c-2.875 0-5.573 1.4-7.086 3.74l1.68 1.086zM34 26.753c0 .624-.568 1.255-1.429 1.255v2c1.823 0 3.429-1.39 3.429-3.255h-2zM4.643 20.988h7.286v-2H4.643v2zm26.714-2h-7.286v2h7.286v-2zM7.071 14.223H28.93v-2H7.07v2z"/></svg>