<svg width="37" height="28" viewBox="0 0 37 28" fill="none" xmlns="http://www.w3.org/2000/svg">
<path d="M27.25 21.1007H31V17.3318M27.25 6.02516H31V9.79404M9.75 6.02516H6V9.79404M6 17.3318V21.1007H9.75M18.5 18.5881C15.7386 18.5881 13.5 16.3382 13.5 13.5629C13.5 10.7876 15.7386 8.53775 18.5 8.53775C21.2614 8.53775 23.5 10.7876 23.5 13.5629C23.5 16.3382 21.2614 18.5881 18.5 18.5881ZM3.5 1H33.5C34.8807 1 36 2.12492 36 3.51258V23.6132C36 25.0009 34.8807 26.1258 33.5 26.1258H3.5C2.11929 26.1258 1 25.0009 1 23.6132V3.51258C1 2.12492 2.11929 1 3.5 1Z" stroke="#0085FF" stroke-width="2"/>
</svg>
