<svg width="174" height="24" viewBox="0 0 174 24" fill="none" xmlns="http://www.w3.org/2000/svg">
<path d="M11.0091 19.3045L4.20475 22.882L5.50454 15.3048L0 9.93921L7.60692 8.83455L11.0091 1.94092L14.4113 8.83455L22.0182 9.93921L16.5136 15.3048L17.8134 22.882L11.0091 19.3045Z" fill="#0085FF"/>
<path d="M48.7547 19.3045L41.9504 22.882L43.2502 15.3048L37.7456 9.93921L45.3525 8.83455L48.7547 1.94092L52.1569 8.83455L59.7638 9.93921L54.2592 15.3048L55.559 22.882L48.7547 19.3045Z" fill="#0085FF"/>
<path d="M86.4998 19.3045L79.6955 22.882L80.9953 15.3048L75.4907 9.93921L83.0976 8.83455L86.4998 1.94092L89.902 8.83455L97.5089 9.93921L92.0044 15.3048L93.3041 22.882L86.4998 19.3045Z" fill="#0085FF"/>
<path d="M124.245 19.3045L117.441 22.882L118.741 15.3048L113.236 9.93921L120.843 8.83455L124.245 1.94092L127.648 8.83455L135.255 9.93921L129.75 15.3048L131.05 22.882L124.245 19.3045Z" fill="#0085FF"/>
<path d="M161.991 19.3045L155.187 22.882L156.486 15.3048L150.982 9.93921L158.589 8.83455L161.991 1.94092L165.393 8.83455L173 9.93921L167.496 15.3048L168.795 22.882L161.991 19.3045Z" stroke="#0085FF" stroke-width="2" stroke-linecap="round" stroke-linejoin="round"/>
</svg>
