<svg width="173" height="21" viewBox="0 0 173 21" fill="none" xmlns="http://www.w3.org/2000/svg">
<path d="M11.0091 17.3636L4.20475 20.9411L5.50454 13.3639L0 7.99829L7.60692 6.89364L11.0091 0L14.4113 6.89364L22.0182 7.99829L16.5136 13.3639L17.8134 20.9411L11.0091 17.3636Z" fill="#0085FF"/>
<path d="M48.7547 17.3636L41.9504 20.9411L43.2502 13.3639L37.7456 7.99829L45.3525 6.89364L48.7547 0L52.1569 6.89364L59.7638 7.99829L54.2592 13.3639L55.559 20.9411L48.7547 17.3636Z" fill="#0085FF"/>
<path d="M86.4998 17.3636L79.6955 20.9411L80.9953 13.3639L75.4907 7.99829L83.0976 6.89364L86.4998 0L89.902 6.89364L97.5089 7.99829L92.0044 13.3639L93.3041 20.9411L86.4998 17.3636Z" fill="#0085FF"/>
<path d="M124.245 17.3636L117.441 20.9411L118.741 13.3639L113.236 7.99829L120.843 6.89364L124.245 0L127.648 6.89364L135.255 7.99829L129.75 13.3639L131.05 20.9411L124.245 17.3636Z" fill="#0085FF"/>
<path d="M161.991 17.3636L155.187 20.9411L156.486 13.3639L150.982 7.99829L158.589 6.89364L161.991 0L165.393 6.89364L173 7.99829L167.496 13.3639L168.795 20.9411L161.991 17.3636Z" fill="#0085FF"/>
</svg>
