<svg xmlns="http://www.w3.org/2000/svg" width="47" height="66" fill="none"><path stroke="#0085FF" stroke-width="2" d="M41.665 35.365c-2.021-1.91-4.716-3.247-8.03-4.057 2.692-1.09 4.923-2.634 6.666-4.65 2.44-2.822 3.648-6.245 3.648-10.21 0-4.804-1.958-8.613-5.84-11.32C34.3 2.455 29.18 1.174 22.851 1.174c-7.757 0-14.49 2.02-20.15 6.095l-.785.565.54.803 5.865 8.737.549.817.825-.535c2.441-1.583 4.616-2.67 6.53-3.292 1.961-.627 3.868-.936 5.723-.936 2.737 0 4.606.55 5.775 1.483 1.126.9 1.756 2.277 1.756 4.325 0 2.673-.95 4.39-2.733 5.406-1.9 1.071-5.075 1.674-9.679 1.674h-5.634v11.721h5.552c4.996 0 8.46.59 10.537 1.654.998.51 1.706 1.176 2.173 1.987.47.816.728 1.84.728 3.111 0 2.923-.915 4.853-2.575 6.035-1.744 1.243-4.582 1.948-8.689 1.948-2.643 0-5.319-.357-8.03-1.075-2.728-.722-5.218-1.655-7.474-2.796l-1.45-.735V61.24l.605.26c5.177 2.223 11.084 3.321 17.703 3.321 7.885 0 14.107-1.621 18.531-5.004l.003-.003c4.454-3.435 6.665-8.239 6.665-14.286 0-4.19-1.325-7.618-4.048-10.162z"/></svg>