<svg xmlns="http://www.w3.org/2000/svg" width="32" height="31" fill="none"><path fill="#0085FF" d="M31.995 13.668a.91.91 0 00-.368-.634l-2.535-1.865.922-2.956a.892.892 0 00-.086-.723.94.94 0 00-.602-.434l-3.096-.702-.396-3.065a.911.911 0 00-.38-.627.964.964 0 00-.732-.158l-3.123.582L19.954.442a.942.942 0 00-.61-.422.965.965 0 00-.735.144L16 1.93 13.39.164a.965.965 0 00-.734-.144.941.941 0 00-.61.422L10.4 3.086l-3.123-.582a.965.965 0 00-.731.158.91.91 0 00-.382.627L5.77 6.354l-3.097.702a.94.94 0 00-.601.434.892.892 0 00-.086.723l.922 2.956-2.535 1.865a.899.899 0 00-.144 1.329l2.08 2.336-1.534 2.705a.892.892 0 00-.07.725c.08.24.26.438.495.546l2.879 1.312-.27 3.078a.899.899 0 00.239.69.955.955 0 00.681.303l3.18.061 1.042 2.918c.086.24.27.433.507.536.238.103.51.106.75.008l2.93-1.2 2.175 2.254c.178.184.426.29.687.29.26 0 .51-.106.688-.29l2.174-2.254 2.93 1.2c.24.098.512.095.75-.008a.925.925 0 00.507-.536l1.042-2.918 3.18-.061a.954.954 0 00.681-.303.9.9 0 00.239-.69l-.27-3.078 2.88-1.312a.925.925 0 00.495-.546.892.892 0 00-.07-.725L29.69 16.7l2.08-2.336a.9.9 0 00.225-.695zm-4.272 3.356l1.366 2.408-2.563 1.169a.912.912 0 00-.538.906l.24 2.74-2.83.054a.94.94 0 00-.872.615l-.928 2.598-2.609-1.068a.962.962 0 00-1.053.217L16 28.67l-1.936-2.007a.955.955 0 00-1.053-.217l-2.609 1.068-.928-2.598a.94.94 0 00-.871-.615l-2.83-.054.239-2.74a.912.912 0 00-.539-.907l-2.562-1.168 1.366-2.408a.895.895 0 00-.112-1.04l-1.852-2.08 2.256-1.66a.9.9 0 00.333-.996l-.82-2.631 2.756-.625a.926.926 0 00.72-.778l.353-2.728 2.78.518a.953.953 0 00.984-.426l1.464-2.353 2.322 1.571a.965.965 0 001.078 0l2.322-1.571 1.464 2.353a.953.953 0 00.984.426l2.78-.518.352 2.728c.05.38.337.69.721.778l2.757.625-.821 2.631a.9.9 0 00.333.995l2.256 1.66-1.852 2.08a.895.895 0 00-.112 1.041z"/><path fill="#0085FF" d="M16 6.703c-4.972 0-9.017 3.93-9.017 8.759 0 4.83 4.045 8.76 9.017 8.76 4.972 0 9.017-3.93 9.017-8.76S20.972 6.702 16 6.702zm0 15.687c-3.933 0-7.133-3.108-7.133-6.928s3.2-6.928 7.133-6.928 7.133 3.108 7.133 6.928-3.2 6.928-7.133 6.928z"/><path fill="#0085FF" d="M19.695 12.854a.962.962 0 00-1.333 0l-3.371 3.274-1.353-1.313a.962.962 0 00-1.332 0 .897.897 0 000 1.294l2.018 1.961a.954.954 0 00.667.268c.24 0 .482-.09.666-.268l4.038-3.922a.897.897 0 000-1.294z"/></svg>