<svg xmlns="http://www.w3.org/2000/svg" width="32" height="32" fill="none"><path fill="#0085FF" d="M9.571 16.326v-1a1 1 0 00-1 1h1zm12.858 0h1a1 1 0 00-1-1v1zm0-1H9.57v2H22.43v-2zM16 23.54c4.15 0 7.429-3.12 7.429-7.213h-2c0 2.925-2.318 5.213-5.429 5.213v2zm-7.429-7.213c0 4.094 3.278 7.213 7.429 7.213v-2c-3.111 0-5.429-2.288-5.429-5.213h-2zM16 29.822c-7.764 0-14-6.074-14-13.496H0c0 8.59 7.196 15.496 16 15.496v-2zm14-13.496c0 7.422-6.235 13.496-14 13.496v2c8.804 0 16-6.906 16-15.496h-2zM16 2.831c7.765 0 14 6.074 14 13.495h2C32 7.736 24.804.831 16 .831v2zm0-2C7.196.83 0 7.736 0 16.326h2C2 8.905 8.236 2.831 16 2.831v-2zM8.5 13.185h2.143v-2H8.5v2zm12.857 0H23.5v-2h-2.143v2z"/></svg>