<svg xmlns="http://www.w3.org/2000/svg" width="319" height="132" fill="none"><path fill="#1F529C" d="M64.649 80.952a135.166 135.166 0 01-4.261-6.467c-2.79-4.62-5.39-8.499-7.808-12.011-2.225-2.772-4.458-5.352-7.239-7.383 3.346-1.482 5.947-3.7 7.803-6.472 2.23-3.138 3.342-7.204 3.342-11.632 0-6.838-2.421-12.194-7.055-16.077-3.897-3.326-9.288-5.36-15.782-5.727C32.729 15 31.796 15 30.868 15h-18.56c-.752 0-1.308.55-1.308 1.29v73.53c0 .738.556 1.291 1.309 1.291h10.576c.744 0 1.3-.553 1.3-1.29V59.153h3.153c1.669 0 3.162.366 4.83.92.364.187.925.553 1.48.74 1.113.928 2.602 2.035 4.086 3.696 2.23 2.401 5.01 6.097 8.163 10.904l9.656 15.145c.193.37.745.553 1.117.553h12.616c.56 0 .937-.37 1.31-.737v-.553c0-.375 0-.558-.193-.924l-5.754-7.945zM40.336 43.816c-1.301 1.482-3.718 2.589-6.687 2.955-1.292.188-2.593.375-3.893.375h-5.57V26.82h5.57c1.3 0 2.6 0 3.893.183 2.79.374 4.834 1.11 6.314 2.405 2.041 1.66 2.97 4.066 2.97 7.017.184 2.959-.745 5.36-2.597 7.391zm152.959 5.544c-4.09-2.401-7.239-4.437-8.908-5.91-2.229-1.665-2.229-2.589-2.229-2.589 0-.92.373-1.66 1.109-2.214.936-.74 2.233-.928 3.901-.928 5.014 0 10.952 1.665 13.365 3.142.377.375.929.375 1.301.188.556-.37.74-.745.74-1.295v-9.426c0-.554-.184-.92-.74-1.107-2.785-1.478-9.096-2.585-14.854-2.585-5.198 0-9.463 1.29-12.433 3.692-3.157 2.593-4.825 6.284-4.825 10.72 0 3.692 1.296 6.651 3.901 9.053 2.225 2.401 5.01 4.436 7.979 6.097 2.969 1.66 5.566 3.138 7.799 4.615 1.849 1.111 2.781 2.401 2.965 3.513 0 1.29-.556 2.214-1.484 2.776-1.113.92-2.597 1.286-4.45 1.286-5.39 0-12.257-2.585-15.042-4.433-.372-.37-.928-.37-1.296-.183-.561.366-.74.737-.74 1.29v10.35c0 .363.179.925.74 1.108 3.337 1.848 11.876 2.955 17.446 2.955 4.826 0 9.1-1.295 12.253-4.25 3.346-2.767 5.01-6.471 5.01-11.27.188-2.588-.744-5.169-2.781-7.387-1.677-2.218-4.638-4.62-8.727-7.208zm109.898-17.18c-3.349-3.325-7.606-5.177-12.625-5.177-2.973.191-5.75.74-8.539 2.218-1.669.74-3.345 2.035-4.83 3.325v-3.138a1.27 1.27 0 00-1.296-1.294h-9.648c-.744 0-1.313.562-1.313 1.294v48.223c0 .737.569 1.473 1.313 1.473h9.648c.74 0 1.296-.736 1.296-1.473V43.633c2.045-2.218 3.902-3.879 5.57-4.803 1.677-.923 3.346-1.477 5.198-1.477 2.601 0 4.458.924 5.938 2.768 1.489 1.852 2.229 4.436 2.229 7.765v29.745c0 .737.565 1.473 1.305 1.473h9.652c.74 0 1.3-.736 1.3-1.473V47.886c0-7.025-1.852-12.198-5.198-15.706zm-47.154 41.38c.376-.182.556-.553.556-1.102v-9.243c0-.554-.18-.92-.74-1.108-.376-.366-.928-.183-1.296 0-2.79 1.848-5.391 3.143-8.176 4.062-2.597 1.112-5.378 1.482-7.975 1.482-1.304 0-2.605 0-3.717-.187-2.597-.554-4.83-1.478-6.495-3.138-2.229-1.852-3.709-4.807-4.458-8.503h32.489c.368 0 .556-.183.928-.366.189-.183.368-.554.368-.92-.179-9.24-2.044-16.26-6.126-20.88-3.897-4.623-9.468-7.02-16.334-7.02h-.372c-7.055.183-12.617 2.584-16.891 7.203-4.453 4.62-6.682 10.9-6.682 18.662 0 4.62.928 9.052 2.785 13.114 1.856 4.066 4.826 7.391 8.351 9.98 3.529 2.401 7.607 3.691 12.437 3.879h1.3c4.082 0 7.795-.37 10.952-1.478 3.153-.924 6.127-2.401 9.096-4.436zm-28.587-33.256c1.857-1.657 4.081-2.585 7.239-2.772h.556c3.161 0 5.39.928 7.243 2.772.924 1.11 1.668 2.588 2.229 4.253h-20.052c.556-1.665 1.488-3.142 2.785-4.253zM162.663 77.63v-9.427c0-.74-.552-1.477-1.293-1.477h-20.419V29.408c0-.732-.561-1.294-1.305-1.294h-9.648c-.744 0-1.309.562-1.309 1.294v48.223c0 .737.565 1.473 1.309 1.473h31.372c.741 0 1.293-.736 1.293-1.473zm-69.615 1.844c8.171-.188 14.854-2.589 19.684-7.388 5.009-4.806 7.606-11.461 7.606-19.402 0-7.762-2.781-14.038-7.79-18.845-5.019-4.62-11.513-7.02-19.5-7.204h-.176c-7.8.184-14.293 2.585-19.308 7.392-5.018 4.803-7.615 11.083-7.799 18.474.184 7.94 2.781 14.408 7.611 19.394 5.006 4.99 11.513 7.391 19.496 7.579h.176zm-10.76-15.52c-2.601-2.767-3.906-6.65-3.906-11.453 0-4.25 1.305-7.762 4.09-10.53 2.6-2.588 5.942-4.066 10.208-4.066h.368c4.462.188 7.807 1.478 10.588 4.067 2.781 2.767 4.086 6.28 4.266 10.712 0 4.803-1.485 8.682-4.078 11.453-2.605 2.589-6.13 3.883-10.776 4.066h-.368c-4.266 0-7.791-1.477-10.392-4.249zm18.567-10.904c0-4.245-3.534-7.753-7.807-7.753-4.262 0-7.603 3.508-7.603 7.753 0 4.254 3.341 7.762 7.603 7.762 4.273 0 7.807-3.508 7.807-7.762zm-5.942 46.005a4.413 4.413 0 00-1.669-1.482c-.564-.179-1.305-.362-2.049-.362h-.18c-1.305 0-2.229.183-3.341.92-.933.553-1.677 1.477-2.05 2.589-.551 1.29-.735 2.584-.735 3.878 0 1.478.184 2.768.736 4.066.56 1.108 1.3 1.848 2.225 2.589.936.549 2.049.916 3.165.916h.18c1.677 0 2.97-.737 3.898-2.214v1.847h2.228V92.035h-2.408v7.02zm-.929 9.793c-.74.924-1.677 1.29-2.6 1.29h-.189c-.928 0-1.852-.366-2.597-1.29-.924-.924-1.3-2.402-1.3-4.25 0-1.847.376-3.325 1.116-4.066.74-.924 1.669-1.477 2.781-1.477 1.112.183 2.05.553 2.79 1.477.74.928 1.108 2.402 1.108 4.25 0 1.847-.368 3.142-1.109 4.066zm13.177-11.637c-2.04 0-3.525.55-4.826 1.844-1.3 1.477-1.852 3.325-1.852 5.727 0 2.401.552 4.066 1.852 5.543 1.117 1.107 2.786 1.844 4.826 1.844h.193c1.664 0 3.149-.367 4.081-1.29 1.113-.741 1.857-1.848 2.225-3.322l-2.417-.374c-.377 1.107-.929 1.848-1.665 2.222-.56.55-1.304.733-2.224.733h-.193c-1.112 0-2.04-.366-2.785-1.29-.924-.741-1.296-2.036-1.489-3.509h10.961v-.741c0-2.401-.748-4.253-1.857-5.543-1.3-1.294-2.785-1.844-4.83-1.844zm0 6.093h-4.081c.188-1.294.556-2.218 1.296-3.142.745-.733 1.673-1.107 2.785-1.107 1.301 0 2.417.553 3.153 1.477.377.554.749 1.478.929 2.772h-4.082zm18.559.924c-.74-.183-2.036-.737-3.705-1.107-1.116-.37-1.857-.554-2.229-.554-.372-.187-.74-.557-.932-.74-.18-.188-.18-.554-.18-.92 0-.375.18-.928.74-1.299.372-.37 1.296-.553 2.409-.553.932 0 1.673.183 2.233.737.368.37.748.928.924 1.668l2.413-.374a6.117 6.117 0 00-.924-2.214c-.377-.558-1.117-.924-1.861-1.299-.924-.362-1.853-.362-2.965-.362-.744 0-1.485 0-2.229.183-.56.18-1.112.367-1.48.737-.565.366-.937.74-1.305 1.298-.188.55-.376 1.291-.376 1.844 0 .737.188 1.294.564 1.848.368.741.924 1.107 1.485 1.477.744.371 2.036.741 3.897 1.103 1.297.375 2.041.745 2.409.928.56.183.744.737.744 1.295 0 .553-.372 1.107-.744 1.481-.552.55-1.48.733-2.593.733-1.116 0-2.045-.183-2.601-.733-.56-.557-.928-1.298-1.112-2.222l-2.417.374c.188 1.474.932 2.768 1.856 3.505.933.74 2.417 1.107 4.274 1.107 1.113 0 2.225-.179 3.153-.55a5.699 5.699 0 002.045-1.664c.364-.737.74-1.478.74-2.398 0-.745-.376-1.481-.74-2.035-.376-.553-.928-.924-1.493-1.294zm5.019-9.422h2.412v-2.772h-2.412v2.772zm0 16.996h2.412V97.395h-2.412v14.408zm15.769-12.564c-1.104-1.29-2.409-2.027-3.889-2.027h-.376c-1.292 0-2.409.183-3.337.92-.933.553-1.669 1.477-2.041 2.589-.56 1.29-.744 2.401-.744 3.878 0 2.031.372 3.692 1.484 5.174 1.117 1.29 2.785 2.03 4.638 2.03h.376c1.48 0 2.593-.549 3.714-1.847 0 1.664 0 2.584-.193 3.142-.18.741-.736 1.481-1.296 1.843-.552.558-1.305.745-2.225.745h-.376c-1.108 0-1.853-.187-2.409-.745-.556-.183-.74-.736-.928-1.477l-2.413-.366c0 1.481.556 2.767 1.48 3.508 1.121.737 2.61 1.111 4.27 1.111h.376c1.296 0 2.413-.374 3.341-.74a6.453 6.453 0 002.233-2.219c.364-1.107.544-2.588.544-4.802v-12.56h-2.229v1.843zm-1.104 9.239c-.744.928-1.673 1.295-2.785 1.295h-.188c-1.108 0-2.041-.367-2.785-1.295-.74-.736-1.113-2.214-1.113-4.066 0-1.844.373-3.138 1.113-3.879.744-.924 1.677-1.477 2.785-1.477h.188c.92.183 1.857.553 2.785 1.477.736.928 1.104 2.219 1.104 3.879 0 1.852-.368 3.33-1.104 4.066zm18.007-9.605c-.376-.558-.928-.924-1.673-1.299-.74-.362-1.484-.362-2.412-.362-2.041 0-3.526.737-4.642 2.218v-2.035h-2.225v14.408h2.409v-7.757c0-1.848.56-3.138 1.304-3.883.741-.554 1.665-.924 2.597-.924.741 0 1.297.191 1.669.37.56.37.932.737 1.116 1.299.184.366.184 1.103.184 2.214v8.681h2.602v-8.868c0-1.107-.193-1.848-.193-2.402-.184-.553-.364-1.294-.736-1.66zm10.584-1.66c-2.044 0-3.713.549-4.834 1.843-1.296 1.477-2.036 3.325-2.036 5.727 0 2.401.74 4.066 2.036 5.543 1.121 1.107 2.79 1.844 4.834 1.844h.18c1.673 0 2.969-.367 4.082-1.29 1.112-.741 1.861-1.848 2.229-3.322l-2.597-.374c-.372 1.107-.929 1.848-1.485 2.222-.556.55-1.3.733-2.229.733h-.18c-1.116 0-2.233-.366-2.977-1.29-.736-.741-1.112-2.036-1.296-3.509h10.764v-.741c0-2.401-.557-4.253-1.853-5.543-1.116-1.294-2.785-1.844-4.638-1.844zm0 6.092h-4.089c0-1.294.556-2.218 1.296-3.142.749-.733 1.677-1.107 2.793-1.107 1.293 0 2.221.553 2.965 1.477.557.554.929 1.478.929 2.772h-3.894zm18.743-4.25a4.41 4.41 0 00-1.668-1.48c-.556-.18-1.301-.363-2.041-.363h-.188c-1.301 0-2.409.183-3.341.92-.929.553-1.673 1.477-2.041 2.589-.56 1.29-.744 2.584-.744 3.878 0 1.478.184 2.768.744 4.066.552 1.108 1.296 1.848 2.225 2.589.928.549 2.045.916 3.157.916h.188c1.673 0 2.965-.737 3.902-2.214v1.847h2.225V92.035h-2.418v7.02zm-.928 9.794c-.74.924-1.669 1.29-2.605 1.29h-.176c-.937 0-1.861-.366-2.597-1.29-.932-.924-1.309-2.402-1.309-4.25 0-1.847.377-3.325 1.117-4.066.74-.924 1.673-1.477 2.789-1.477 1.112.183 2.041.553 2.781 1.477.744.928 1.121 2.402 1.121 4.25 0 1.847-.377 3.142-1.121 4.066zm15.038 2.954h2.413V97.395h-2.413v14.408zm0-16.996h2.413v-2.772h-2.413v2.772zm17.079 4.066c-.373-.558-.937-.924-1.673-1.299-.749-.362-1.485-.362-2.409-.362-2.045 0-3.529.737-4.646 2.218v-2.035h-2.229v14.408h2.601v-7.757c0-1.848.377-3.138 1.113-3.883.744-.554 1.672-.924 2.601-.924.74 0 1.3.191 1.852.37.368.37.749.737.937 1.299.18.366.364 1.103.364 2.214v8.681h2.417v-8.868c0-1.107 0-1.848-.188-2.402-.18-.553-.368-1.294-.74-1.66zm28.766-6.838h-3.525l-10.02 9.793v-9.793h-2.601v19.768h2.601v-6.833l3.342-3.142 7.05 9.975h3.53l-8.724-11.823 8.347-7.945zm8.168 5.177c-1.857 0-3.338.362-4.634 1.474-1.493 1.294-2.229 3.325-2.229 5.913 0 2.398.736 4.433 1.857 5.727 1.3 1.294 2.969 1.844 5.006 1.844 1.308 0 2.421-.367 3.533-.916 1.117-.558 1.861-1.298 2.413-2.405.552-1.107.74-2.585.74-4.437 0-2.214-.552-4.066-1.852-5.356-1.301-1.294-2.785-1.844-4.834-1.844zm2.973 11.637c-.74.924-1.857 1.29-2.973 1.29-1.297 0-2.225-.366-3.145-1.29-.749-.924-1.121-2.402-1.121-4.25 0-1.847.372-3.138 1.121-4.066.92-.924 1.848-1.477 3.145-1.477 1.116 0 2.233.553 2.973 1.477.932.928 1.3 2.219 1.3 4.066 0 1.848-.368 3.326-1.3 4.25zm10.4-11.275c-.56.375-.933 1.112-1.485 2.035v-2.214h-2.228v14.408h2.413v-7.574c0-.924.183-1.848.367-2.768.189-.553.565-.928.933-1.298.372-.37.933-.554 1.485-.554.56 0 1.112.184 1.852.554l.745-2.214c-.745-.554-1.673-.737-2.413-.737-.736 0-1.117 0-1.669.362zm11.508-.362c-2.04 0-3.713.55-4.825 1.844-1.305 1.477-1.857 3.325-1.857 5.727 0 2.401.552 4.066 1.857 5.543 1.112 1.107 2.785 1.844 4.825 1.844h.18c1.673 0 2.978-.367 4.09-1.29 1.108-.741 1.853-1.848 2.221-3.322l-2.593-.374c-.376 1.107-.74 1.848-1.489 2.222-.556.55-1.296.733-2.229.733h-.18c-1.112 0-2.04-.366-2.973-1.29-.74-.741-1.112-2.036-1.296-3.509h10.76v-.741c0-2.401-.548-4.253-1.665-5.543-1.304-1.294-2.973-1.844-4.826-1.844zm0 6.093h-4.085c0-1.294.56-2.218 1.296-3.142.749-.733 1.677-1.107 2.789-1.107 1.301 0 2.225.553 2.974 1.477.548.554.924 1.478.924 2.772h-3.898zm21.349 2.585v-3.322c0-1.107 0-1.847-.188-2.222-.189-.737-.364-1.29-.741-1.66-.372-.554-.928-.924-1.672-1.112-.741-.362-1.853-.362-2.965-.362h-.745c-.936 0-1.856.183-2.601.362a6.716 6.716 0 00-2.229 1.482c-.363.737-.744 1.477-1.112 2.584l2.413.188c.368-.92.74-1.665 1.305-2.035.547-.363 1.288-.554 2.224-.737h.368c1.117 0 2.045.374 2.785.924.373.366.741 1.107.741 2.031v.741c-.925.183-2.225.553-3.894.74h-.56c-.924.183-1.664.371-2.229.371-.552.183-1.108.549-1.668.92-.557.37-.929.74-1.297 1.294-.372.553-.56 1.29-.56 2.031 0 1.111.56 2.218 1.3 2.955.933.74 2.041 1.107 3.71 1.107.368 0 .932 0 1.304-.179.557 0 .925-.188 1.293-.371.936-.187 1.86-.74 2.789-1.481 0 .557.184 1.294.372 1.664h2.597c-.372-.549-.556-1.107-.556-1.664-.184-.554-.184-2.031-.184-4.249zm-2.417-.367c0 1.107-.184 1.844-.548 2.402-.193.74-.749 1.294-1.489 1.66a3.148 3.148 0 01-1.857.554c-.192.187-.372.187-.744.187-.933 0-1.673-.187-2.229-.741-.368-.366-.74-.92-.74-1.66 0-.367.184-.741.372-1.112.18-.366.552-.549.924-.736.561-.187 1.113-.375 2.225-.554h.192c1.669-.183 2.969-.553 3.894-.924v.924z"/></svg>