<svg xmlns="http://www.w3.org/2000/svg" width="321" height="132" fill="none"><path fill="#2D509F" fill-rule="evenodd" d="M12 30h46.387v72.943H12V30zm50.203 0h46.385v72.943H62.203V30zm50.202 0h46.382v72.943h-46.382V30zm50.201 0h46.385v72.943h-46.385V30zm50.199 0h46.385v72.943h-46.385V30zm50.202 0h46.384v72.943h-46.384V30z" clip-rule="evenodd"/><path fill="#fff" fill-rule="evenodd" d="M29.53 44.964h10.925a91.22 91.22 0 015.28 10.65 117.741 117.741 0 014.09 11.224 147.327 147.327 0 012.87 10.949c.801 3.682 1.45 7.172 1.949 10.464H43.146c-.042-.242-.102-.559-.168-.94-.066-.38-.119-.665-.16-.879-.043-.208-.1-.67-.187-1.374-.118-.67-.228-1.307-.345-1.91-.118-.615-.244-1.346-.396-2.212H30.492c.152-.813.37-1.87.667-3.173.303-1.302.523-2.278.683-2.935.16-.645.379-1.605.684-2.877h7.136a58.913 58.913 0 00-1.13-3.967 85.882 85.882 0 00-1.577-4.352 81.744 81.744 0 00-1.915-4.554 108.272 108.272 0 00-2.583 6.648 110.44 110.44 0 00-2.286 7.399 145.036 145.036 0 00-1.855 7.529 182.106 182.106 0 00-1.45 7.595H15.368a180.12 180.12 0 015.652-22.97 133.975 133.975 0 014.099-11.331c1.492-3.593 2.96-6.586 4.411-8.984zm241.284 0h30.772v9.697h-9.665v33.588h-11.548V54.661h-9.559v-9.697zm-200.805 0h30.773v9.697h-9.666v33.588H79.566V54.661H70.01v-9.697zm51.944 0h11.5v33.588h15.784v9.697h-27.284V44.964zm58.372 0h10.925a92.222 92.222 0 015.279 10.65 118.605 118.605 0 014.093 11.224 149.69 149.69 0 012.869 10.949 168.926 168.926 0 011.949 10.464h-11.5c-.042-.242-.102-.559-.168-.94-.066-.38-.118-.665-.16-.879a22.703 22.703 0 01-.185-1.374c-.122-.67-.23-1.307-.348-1.91-.139-.736-.27-1.473-.395-2.212h-11.398a94.45 94.45 0 01.666-3.173c.304-1.302.524-2.278.685-2.935.16-.645.378-1.605.685-2.877h7.136a58.68 58.68 0 00-1.13-3.967 91.994 91.994 0 00-1.576-4.352 80.632 80.632 0 00-1.918-4.554 105.752 105.752 0 00-4.868 14.047 148.605 148.605 0 00-1.855 7.529 188.266 188.266 0 00-1.453 7.595h-11.496a172.24 172.24 0 012.386-11.336 181.105 181.105 0 013.264-11.638 133.091 133.091 0 014.101-11.328c1.493-3.592 2.959-6.585 4.412-8.983zm36.183 0h11.496c1.232.567 2.554 1.298 3.965 2.212a62.254 62.254 0 014.261 3.013 62.63 62.63 0 017.763 7.044V44.966h11.496V88.25h-11.496V74.117c-1.284-1.68-2.836-3.436-4.656-5.302a82.741 82.741 0 00-5.748-5.32c-2.007-1.692-3.87-3.096-5.583-4.204v28.96H216.51V44.964h-.002z" clip-rule="evenodd"/></svg>