<svg xmlns="http://www.w3.org/2000/svg" width="321" height="131" fill="none"><path fill="#CC2229" fill-rule="evenodd" d="M78.406 39.919l-3.382-.414C36.443 34.538 30.1 71.895 30.946 98.076l16.067-.414c-2.537-23.698-.422-53.604 31.393-57.743z" clip-rule="evenodd"/><path fill="#33A457" fill-rule="evenodd" d="M78.406 39.919C47.014 26.259 24.604 27.086 6 68.168l13.107 5.382c10.148-25.767 23.255-43.153 55.916-34.046l3.383.413z" clip-rule="evenodd"/><path fill="#000" fill-rule="evenodd" d="M80.66 91.89l19.282-54.423h13.523l19.28 54.424h-12.52l-3.254-10.787H96.688L92.68 91.89h-12.02zm26.293-42.166l-7.01 21.818h13.771l-6.761-21.818zm42.07 42.167V37.467h27.795c5.51 0 10.017 1.962 12.772 4.658 2.754 2.697 4.758 6.864 4.758 10.787 0 2.697-1.002 5.884-2.755 7.845-1.003 2.206-3.255 4.413-6.01 5.393 2.755.735 4.508 2.206 5.508 3.922 1.001 1.962 1.252 5.148 1.252 8.336v7.6c0 .98.501 1.716.501 2.206 0 .981 1.001 2.206 2.004 2.206v1.47h-12.52c-.501-1.716-1.004-3.186-1.004-3.676v-9.806c0-.981-.499-2.451-.499-3.188 0-.98-.751-2.451-1.254-2.697-1.001-.981-3.255-1.96-7.01-1.96H160.04V91.89h-11.017zm11.018-30.889h14.274c5.759 0 8.513-2.697 8.513-7.11 0-1.716-1.001-3.676-2.002-4.657-.751-1.226-3.756-2.206-6.511-2.206h-14.274v13.973zm72.619 30.889h-24.039V37.467h24.039c7.512 0 13.521 2.942 16.526 7.355 3.757 4.902 5.761 11.277 5.761 18.14v.491c0 7.11-2.004 14.463-5.259 19.858-3.507 5.393-9.515 8.58-17.028 8.58zm-13.022-9.562h11.269c4.005 0 7.763-1.716 9.516-5.392 2.004-3.188 2.754-7.6 2.754-12.258v-.735c0-2.451-.25-5.148-.25-6.864-.499-1.962-1.503-4.168-2.504-5.393-1.753-2.697-5.008-4.658-9.516-4.658h-11.269v35.3zm42.068-14.953v-1.717c0-5.393 1.004-10.54 2.505-13.973 1.753-4.658 5.009-8.58 8.763-11.277 1.753-.98 4.508-2.451 6.762-2.942 2.754-.735 6.01-1.225 8.763-1.225H289c2.757 0 6.511.98 9.265 1.716 2.756.98 6.012 3.187 8.264 5.148 2.504 2.206 4.758 5.394 6.01 9.07 1.502 3.433 2.505 8.091 2.505 12.994 0 5.883-1.503 11.276-3.256 14.953-2.254 4.169-6.01 7.601-9.767 9.562-3.756 2.206-8.763 3.677-13.771 3.677-5.26 0-10.268-1.471-14.023-3.188-3.756-2.45-7.012-5.637-8.765-9.07-1.001-1.961-2.252-4.658-2.754-6.374-.502-2.206-1.004-4.903-1.004-6.864v-.49h.002zm11.52-3.923v1.226c0 3.186.501 6.373 1.003 8.58 1.002 2.698 2.755 5.884 5.007 7.846 1.003.734 2.505 1.716 3.757 1.716 1.502.49 3.255.98 5.259.98h.248c3.258 0 6.511-.98 8.515-2.696.752-.982 2.254-1.962 2.754-2.697.752-.981 1.753-2.698 1.753-4.168 1.004-2.698 2.004-5.394 2.004-8.091 0-13.238-5.758-19.857-15.775-19.857h-.502c-2.001 0-4.256.735-6.01 1.716-2.003.98-4.256 3.186-5.507 5.393-.501.98-1.503 2.697-1.503 4.657-.501 1.717-1.003 3.922-1.003 5.884v-.489z" clip-rule="evenodd"/></svg>