<svg xmlns="http://www.w3.org/2000/svg" width="321" height="131" fill="none"><path fill="#A50034" d="M81.25 127.109c34.35 0 62.249-27.752 62.249-62.041C143.499 30.777 115.6 3 81.249 3 46.846 3 19 30.777 19 65.068c0 34.29 27.846 62.041 62.25 62.041z"/><path fill="#fff" d="M78.745 37.83v54.45h17.351v-4.897h-12.35V37.83h-5zM61.371 52.686c4.128 0 7.456-3.349 7.456-7.438 0-4.093-3.328-7.454-7.456-7.454s-7.455 3.361-7.455 7.454 3.328 7.438 7.456 7.438z"/><path fill="#fff" d="M83.744 13.13a67.516 67.516 0 00-2.478-.073c-28.733 0-52.118 23.338-52.118 51.985 0 13.915 5.42 26.958 15.237 36.766C54.242 111.593 67.32 117 81.265 117c13.892 0 26.968-5.407 36.808-15.192 9.84-9.808 15.286-22.85 15.286-36.766V62.73H96.144v4.785h32.251c0 .105 0 .612-.023.744-1.639 24.491-22.142 43.889-47.106 43.889-12.637 0-24.486-4.903-33.404-13.806-8.947-8.866-13.877-20.678-13.877-33.301 0-12.551 4.93-24.424 13.877-33.317 8.918-8.886 20.767-13.789 33.404-13.789.544 0 1.868 0 2.478.033v-4.839z"/><path fill="#6B6B6B" d="M190.314 23.892h-18.706v80.787h57.453V88.953h-38.747V23.892zm79.897 50h15.234v14.126c-2.809 1.067-8.286 2.13-13.498 2.13-16.836 0-22.444-8.53-22.444-25.856 0-16.523 5.341-26.265 22.176-26.265 9.356 0 14.7 2.934 19.104 8.533l11.63-10.667C295.329 25.77 282.9 22.704 271.28 22.704c-26.195 0-39.954 14.262-39.954 41.453 0 27.058 12.426 41.721 39.822 41.721 12.558 0 24.851-3.198 31.529-7.862v-39.19h-32.466v15.066z"/></svg>