<svg xmlns="http://www.w3.org/2000/svg" width="319" height="132" fill="none"><g clip-path="url(#clip0)"><path fill="#BD2539" d="M66.241 90.15H34.066L27.928 105H11.494l30.888-69.3h15.84L89.21 105H72.38l-6.138-14.85zm-5.049-12.177L50.203 51.441 39.214 77.973h21.978zm57.977 28.215c-5.478 0-10.791-.726-15.939-2.178-5.082-1.518-9.174-3.465-12.276-5.841L96.4 86.091c2.97 2.178 6.501 3.927 10.593 5.247 4.092 1.32 8.184 1.98 12.276 1.98 4.554 0 7.92-.66 10.098-1.98 2.178-1.386 3.267-3.201 3.267-5.445 0-1.65-.66-3.003-1.98-4.059-1.254-1.122-2.904-2.013-4.95-2.673-1.98-.66-4.686-1.386-8.118-2.178-5.28-1.254-9.603-2.508-12.969-3.762-3.366-1.254-6.27-3.267-8.712-6.039-2.376-2.772-3.564-6.468-3.564-11.088 0-4.026 1.09-7.656 3.267-10.89 2.178-3.3 5.445-5.907 9.801-7.821 4.422-1.914 9.801-2.871 16.137-2.871 4.422 0 8.745.528 12.969 1.584s7.92 2.574 11.088 4.554l-4.95 12.177c-6.402-3.63-12.804-5.445-19.206-5.445-4.488 0-7.821.726-9.999 2.178-2.112 1.452-3.168 3.366-3.168 5.742s1.221 4.158 3.663 5.346c2.508 1.122 6.303 2.244 11.385 3.366 5.28 1.254 9.603 2.508 12.969 3.762a21.093 21.093 0 018.613 5.94c2.442 2.706 3.663 6.369 3.663 10.989 0 3.96-1.122 7.59-3.366 10.89-2.178 3.234-5.478 5.808-9.9 7.722-4.422 1.914-9.801 2.871-16.137 2.871zm65.607-28.413l-9.306 9.702V105h-15.939V35.7h15.939v32.373L206.16 35.7h17.82l-28.71 30.888L225.663 105h-18.711l-22.176-27.225zm79.085 28.413c-7.194 0-13.695-1.551-19.503-4.653-5.742-3.102-10.263-7.359-13.563-12.771-3.234-5.478-4.851-11.616-4.851-18.414 0-6.798 1.617-12.903 4.851-18.315 3.3-5.478 7.821-9.768 13.563-12.87 5.808-3.102 12.309-4.653 19.503-4.653 7.194 0 13.662 1.551 19.404 4.653 5.742 3.102 10.264 7.392 13.564 12.87 3.3 5.412 4.95 11.517 4.95 18.315 0 6.798-1.65 12.936-4.95 18.414-3.3 5.412-7.822 9.669-13.564 12.771-5.742 3.102-12.21 4.653-19.404 4.653zm0-13.662c4.092 0 7.788-.924 11.088-2.772 3.301-1.914 5.875-4.554 7.723-7.92 1.913-3.366 2.87-7.194 2.87-11.484s-.957-8.118-2.87-11.484c-1.848-3.366-4.422-5.973-7.723-7.821-3.3-1.914-6.996-2.871-11.088-2.871-4.092 0-7.788.957-11.088 2.871-3.3 1.848-5.907 4.455-7.821 7.821-1.848 3.366-2.772 7.194-2.772 11.484s.924 8.118 2.772 11.484c1.914 3.366 4.521 6.006 7.821 7.92 3.3 1.848 6.996 2.772 11.088 2.772z"/></g><defs><clipPath id="clip0"><path fill="#fff" d="M0 0h319v132H0z"/></clipPath></defs></svg>