<svg xmlns="http://www.w3.org/2000/svg" width="321" height="132" fill="none"><path fill="#000" fill-rule="evenodd" d="M71.03 33.261c-3.868-1.16-6.666 3.08-4.377 5.554C76.83 44.168 83.698 54.67 83.698 66.636c0 17.472-14.552 31.71-32.46 31.71h-.306c-17.757-.15-32.155-14.339-32.155-31.71 0-11.763 6.665-22.115 16.535-27.568 2.085-2.877-.306-6.31-3.612-5.958-11.957 6.665-20.048 19.187-20.048 33.525 0 21.157 17.605 38.476 39.279 38.626h.305c21.777 0 39.584-17.368 39.584-38.626.001-14.237-7.986-26.709-19.79-33.374zm36.684 52.613h7.682V50.528h-7.682v35.346z" clip-rule="evenodd"/><path fill="#000" fill-rule="evenodd" d="M50.932 37.553c.051 0 .051.05.102.05 2.95 0 5.343-2.424 5.343-5.301a5.266 5.266 0 00-1.565-3.75A5.376 5.376 0 0051.034 27h-.102c-1.398.03-2.73.6-3.709 1.591a5.292 5.292 0 00-1.531 3.71c0 2.878 2.34 5.2 5.24 5.252zm89.548 12.975h-17.401v35.344h7.682V57.446h8.854c4.529 0 7.632 2.222 7.53 7.422v21.004h7.682V62.699c0-7.727-6.512-12.17-14.347-12.17zm-89.547-4.694a4.241 4.241 0 00-2.99 1.224 4.178 4.178 0 00-1.234 2.967v36.304c0 2.27 1.884 4.141 4.223 4.141 2.29 0 4.224-1.87 4.224-4.14V50.023a4.196 4.196 0 00-1.244-2.957 4.26 4.26 0 00-2.98-1.233zM215.17 49.62c-9.261.404-15.212 6.514-16.128 18.176-.612 8.89 4.222 18.177 16.128 18.985.254.052.509.052.814.052 5.393.05 9.056-.404 12.618-1.72l.102-6.664c-4.682 1.87-9.566 2.473-13.534 1.72-4.732-.86-8.091-3.738-7.938-8.686h22.642c2.95-13.128-4.02-21.814-14.704-21.863zm8.498 15.602h-16.945v-.101c0-5.201 3.815-9.391 8.447-9.391 4.678 0 8.498 4.19 8.498 9.39v.102zm46.401 20.65h7.681V50.529h-7.681v35.346zm-18.623-20.449c-12.873-2.17-9.616-12.978 9.971-7.926v-6.261c-5.442-1.717-14.195-2.171-18.876 0-9.665 4.696-8.954 19.389 7.072 21.002 10.431 1.264 8.752 13.18-13.225 6.162v6.917c6.918 1.92 15.566 2.728 21.57 0 3.968-2.424 5.495-5.706 5.545-8.938.156-5.654-3.61-9.694-12.057-10.956zm32.206-14.896v6.97h8.856v28.376h7.681V57.498h8.854v-6.97h-25.391zm-105.421.253c-1.068-.152-2.238-.2-3.459-.2h-12.058v35.344h12.211c1.17 0 2.287-.051 3.306-.203 12.671-1.361 15.518-10.602 15.467-16.915-.049-9.745-5.138-16.813-15.467-18.026zm0 28.126c-1.12.253-2.39.404-3.869.404h-4.071V57.144h3.971c1.475 0 2.798.152 3.968.455 5.241 1.314 7.836 5.453 7.886 11.006.051 3.634-1.474 8.835-7.885 10.302z" clip-rule="evenodd"/></svg>