<svg xmlns="http://www.w3.org/2000/svg" width="321" height="131" fill="none"><path fill="#0C479C" fill-rule="evenodd" d="M55.053 91.02C53.473 72.897 65.525 58.216 78.7 56.49 86.76 72.648 71.78 88.1 55.053 91.02z" clip-rule="evenodd"/><path fill="#0C479C" fill-rule="evenodd" d="M69.192 45.755c1.985 1.23 5.135 4.195 6.223 5.65-16.84 8.897-22.02 25.157-21.584 39.818-.729.135-1.536.19-2.209.317-1.244-21.145 8.14-36.357 17.57-45.785z" clip-rule="evenodd"/><path fill="#0C479C" fill-rule="evenodd" d="M56.017 40.07c2.411.43 5.999 1.693 7.984 2.718-9.408 18.021-14.094 28.228-13.422 48.853l-2.164.135c.18-28.994 2.87-34.779 7.602-51.705zM50.366 39.214a47.427 47.427 0 00-8.039-.08c2.568 17.638 2.858 25.103 3.341 52.685a23.86 23.86 0 001.782-.022c-.111-27.402.494-34.788 2.916-52.583zM36.923 40.07c-2.412.43-5.988 1.693-7.972 2.718 9.395 18.021 14.094 28.228 13.41 48.853l2.175.135c-.191-28.994-2.882-34.779-7.613-51.705z" clip-rule="evenodd"/><path fill="#0C479C" fill-rule="evenodd" d="M23.76 45.755c-1.985 1.23-5.125 4.195-6.223 5.65 16.84 8.897 22.01 25.157 21.572 39.818.74.135 1.559.19 2.22.317 1.245-21.145-8.13-36.357-17.57-45.785z" clip-rule="evenodd"/><path fill="#0C479C" fill-rule="evenodd" d="M37.898 91.02c1.57-18.123-10.473-32.804-23.647-34.53-8.073 16.158 6.907 31.61 23.647 34.53zM90.513 49.01h15.534c3.298 0 6.089.11 7.836.502a16.188 16.188 0 016.287 2.681c1.748 1.34 3.13 2.933 4.004 4.776.874 1.843 1.409 4.163 1.409 6.983a14.38 14.38 0 01-1.409 6.231c-1.044 2.093-2.425 3.797-4.342 5.137-1.578.977-3.496 1.734-5.948 2.348-1.917.363-4.341.584-7.499.584H90.513V49.01zm10.121 21.87h4.708c3.101 0 5.526-.614 7.245-1.927 1.748-1.312 2.65-3.128 2.65-5.42 0-2.262-.902-4.078-2.763-5.39-1.944-1.313-4.482-2.011-7.808-2.011h-4.032V70.88zM227.1 77.302h-8.428l-5.723-11.758-5.272 11.73h-8.993l-8.289-20.276h-18.381v3.742h16.296v6.396h-16.296v3.576h18.381v6.622H138.89l-3.976-6.567-2.932 6.567h-11.22l13.193-27.432h15.478l12.714 27.432V49.902h35.099l6.962 16.954 4.822-9.58-3.411-7.374h14.913l-3.636 7.374 4.82 9.58 7.105-16.954h9.725l-11.446 27.4zm-85.674-20.78l-6.286 13.854h13.25l-6.964-13.854z" clip-rule="evenodd"/><path fill="#0C479C" fill-rule="evenodd" d="M252.699 47.78c10.431 0 18.945 7.122 18.945 15.782 0 8.659-8.514 15.754-18.945 15.754-10.431 0-18.916-7.096-18.916-15.755s8.485-15.782 18.916-15.782zm-8.316 15.782c0 5.166 3.748 9.384 8.316 9.384 4.567 0 8.317-4.218 8.317-9.384 0-5.168-3.75-9.386-8.317-9.386-4.568 0-8.316 4.218-8.316 9.386z" clip-rule="evenodd"/><path fill="#0C479C" fill-rule="evenodd" d="M290.448 47.78c10.43 0 18.943 7.122 18.943 15.782 0 8.659-8.513 15.754-18.943 15.754-10.432 0-18.918-7.096-18.918-15.755s8.486-15.782 18.918-15.782zm-8.318 15.782c0 5.166 3.75 9.384 8.317 9.384s8.317-4.218 8.317-9.384c0-5.168-3.75-9.386-8.317-9.386s-8.317 4.218-8.317 9.386z" clip-rule="evenodd"/></svg>