<svg xmlns="http://www.w3.org/2000/svg" width="319" height="131" fill="none"><path fill="#231F20" d="M213.98 100.757c-.568.111-1.57.3-2.461.3-3.055 0-4.786-1.294-4.786-4.82 0-3.664 2.299-4.958 5.192-4.958.891 0 1.487.164 1.945.3v1.73a9.25 9.25 0 00-1.985-.26c-1.678 0-3.003.26-3.003 3.12 0 2.82 1.38 3.132 2.895 3.132.811 0 1.473-.164 2.203-.313v1.769zM222.58 96.155c0-2.533-.824-3.31-2.163-3.31-1.365 0-2.189.914-2.232 3.31-.04 2.397.826 3.323 2.191 3.323 1.353 0 2.204-.79 2.204-3.323zm-6.543.013c0-3.623 1.743-4.889 4.367-4.889 2.622 0 4.325 1.35 4.325 4.89 0 3.526-1.716 4.888-4.353 4.888-2.622 0-4.339-1.32-4.339-4.889zM230.017 95.992c1.002 0 1.893-.3 1.893-1.512 0-1.198-.701-1.402-1.865-1.402h-.662v2.913h.634zm-2.675-4.577h2.622c2.893 0 4.082.777 4.082 2.982 0 1.799-.919 2.275-2 2.603v.162l.285.055c.986.369 1.568 2.26 2.176 3.446v.258h-2.259c-.446-1.267-.919-3.186-1.865-3.459h-1v3.459h-2.041v-9.506zM238.956 96.196h.744c1.19 0 1.784-.381 1.784-1.567 0-1.198-.594-1.539-1.689-1.539h-.839v3.106zm-2.04-4.78h2.569c2.785 0 4.135.64 4.135 3.077 0 2.44-1.608 3.146-3.637 3.146h-1.027v3.282h-2.04v-9.506zM251.922 96.155c0-2.533-.823-3.31-2.161-3.31-1.367 0-2.191.914-2.233 3.31-.04 2.397.826 3.323 2.192 3.323 1.353 0 2.202-.79 2.202-3.323zm-6.542.013c0-3.623 1.744-4.889 4.366-4.889 2.623 0 4.327 1.35 4.327 4.89 0 3.526-1.716 4.888-4.353 4.888-2.622 0-4.34-1.32-4.34-4.889zM259.359 95.992c1.003 0 1.893-.3 1.893-1.512 0-1.198-.701-1.402-1.864-1.402h-.661v2.913h.632zm-2.674-4.577h2.622c2.894 0 4.084.777 4.084 2.982 0 1.799-.921 2.275-2.002 2.603v.162l.286.055c.986.369 1.567 2.26 2.176 3.446v.258h-2.259c-.446-1.267-.92-3.186-1.867-3.459h-.998v3.459h-2.042v-9.506zM270.937 97.422l-.947-3.282-.108-.532h-.135l-.108.532-.987 3.282h2.285zm-5.476 3.282l3.368-9.357h1.999l3.529 9.357v.217h-2.259l-.784-2.124h-2.959l-.692 2.124h-2.202v-.217zM277.833 93.05l-2.65.068v-1.703h7.356v1.703l-2.664-.068v7.871h-2.042V93.05zM284.704 100.921v-9.506h2.042v9.506h-2.042zM295.707 96.155c0-2.533-.824-3.31-2.162-3.31-1.364 0-2.19.914-2.23 3.31-.04 2.397.824 3.323 2.19 3.323 1.35 0 2.202-.79 2.202-3.323zm-6.54.013c0-3.623 1.742-4.889 4.364-4.889s4.326 1.35 4.326 4.89c0 3.526-1.716 4.888-4.352 4.888-2.622 0-4.338-1.32-4.338-4.889zM300.47 91.415h1.782l3.489 4.998.486.817h.123v-5.815h2.041v9.506h-1.744l-3.583-5.189-.406-.694h-.146v5.883h-2.042v-9.506zM81.13 26.804L65.839 83.097h-8.885l-10.809-40.89-10.968 40.89h-8.886L11 26.804h8.806l10.888 40.89 10.968-40.89h8.726l11.048 40.89 10.889-40.89h8.805zM85.207 26.966l8.806-.726v13.79l-.16 5.162h.32c4.083-1.533 7.366-2.259 11.369-2.259 7.125 0 11.928 3.227 11.928 15.565v24.599h-8.806V59.224c0-7.42-3.603-8.387-7.685-8.387-2.563 0-4.724.565-6.966 1.21v31.05h-8.806V26.966zM125.152 43.498h8.806v39.599h-8.806V43.499zm4.403-15.968c4.564 0 5.284 2.662 5.284 5.646s-.961 5.726-5.284 5.726c-4.323 0-5.204-2.742-5.204-5.726 0-2.985.801-5.646 5.204-5.646zM141.402 43.498h6.005l1.201 3.226h.561c2.321-2.016 6.003-3.79 10.807-3.79.56 0 1.201 0 1.841.08v8.71c-1.6-.24-3.282-.483-4.963-.483-2.403 0-4.323.564-6.645 1.612v30.244h-8.807V43.498zM165.577 83.097V26.966l8.807-.726v56.857h-8.807zM245.31 63.498c0-7.498-1.202-13.628-8.247-13.628-7.124 0-8.886 5.887-8.886 13.628 0 7.178 1.441 13.388 8.487 13.388 7.044 0 8.646-5.887 8.646-13.388zm-8.327-20.564c12.489 0 17.295 7.42 17.295 20.564 0 12.339-4.485 20.406-17.456 20.406-12.968 0-17.532-8.067-17.532-20.406 0-13.145 5.204-20.564 17.693-20.564zM284.796 63.498c0-7.498-1.202-13.628-8.245-13.628-7.125 0-8.888 5.887-8.888 13.628 0 7.178 1.442 13.388 8.487 13.388s8.646-5.887 8.646-13.388zm-8.325-20.564c12.488 0 17.294 7.42 17.294 20.564 0 12.339-4.485 20.406-17.454 20.406-12.97 0-17.535-8.067-17.535-20.406 0-13.145 5.205-20.564 17.695-20.564zM299.465 83.097V26.966l8.806-.726v56.857h-8.806zM190.395 75.758c2.481.079 3.843.16 6.404.16 5.443 0 9.047-2.904 9.047-14.438 0-7.902-3.203-9.997-8.967-9.997-2.242 0-4.323.4-6.484 1.128v23.147zm-8.807-32.26h6.645l.721 2.903c2.643-1.452 7.524-3.468 11.929-3.468 8.004 0 13.848 5.888 13.848 20 0 13.872-6.166 20.728-16.411 20.728-3.771 0-7.925-.807-7.925-.807V101l-8.807.968v-58.47z"/><path fill="#EDAC09" d="M225.185 19.168c-6.586-7.687-27.482-.93-50.801 15.328v4.097c20.537-14.706 38.64-21.491 43.825-15.439 6.474 7.556-9.63 32.273-35.974 55.175-26.346 22.904-52.961 35.322-59.434 27.766-3.362-3.925-.621-12.478 6.473-22.998h-4.124c-8.783 13.195-12.075 24.28-7.566 29.544 8.221 9.598 38.972-3.532 68.678-29.355 29.703-25.822 47.143-54.522 38.923-64.118z"/></svg>