<svg xmlns="http://www.w3.org/2000/svg" width="321" height="132" fill="none"><path fill="#000" fill-rule="evenodd" d="M54.754 27.359H13.465v13.373h22.549L12 89.527v15.314h42.766V91.015H30.578l24.188-50.281-.012-13.375zm31.18 63.253l1.97 14.227h17.043l-14.563-77.48h-21.26c-4.774 25.829-9.56 51.656-14.358 77.48h16.919l2.041-14.227h12.208zM75.309 77.638l4.432-31.17 4.539 31.17h-8.971zm75.901-50.28l-.01 77.481h-18.814l-11.088-42.203v42.214l-16.35-.011.015-77.48h18.416l12.011 43.354.014-43.354h15.806zm42.154 73.691c.652-.59 1.284-1.26 1.837-1.989a13.141 13.141 0 001.422-2.343c.39-.83.696-1.695.913-2.585.555-2.565.877-5.175.961-7.797l.098-2.418V27.36h-16.832l.007 56.558c-.03 1.251-.107 2.5-.23 3.746-.043.367-.105.732-.185 1.093-.07.34-.156.677-.257 1.01-.238.756-.516 1.334-1.194 1.915-.555.447-1.358.857-2.085.982-.798.148-1.655.109-2.509-.016a4.913 4.913 0 01-1.224-.464 4 4 0 01-1.015-.766c-.539-.62-.795-1.313-1.012-1.993a8.378 8.378 0 01-.247-1.265 34.418 34.418 0 01-.217-2.024c-.023-.74-.046-1.48-.053-11.275-.006-9.797.007-28.647.016-47.501h-16.596l-.011 56.558c.104 4.083.071 8.134 2.068 12.354a14.637 14.637 0 002.847 3.923 19.047 19.047 0 004.81 3.448c.901.454 1.837.841 3.372 1.27 1.535.428 3.662.893 5.823 1.129 2.155.234 4.34.235 6.5.003 2.159-.231 4.288-.7 5.745-1.096 1.457-.395 2.243-.718 3.003-1.088.76-.37 1.503-.784 2.209-1.249a16.308 16.308 0 002.036-1.562zm13.255-70.517a19.086 19.086 0 00-2.076 2.015 15.197 15.197 0 00-1.791 2.531c-.51.9-.929 1.852-1.272 2.856-1.046 3.096-1.386 6.394-1.107 9.599.169 2.13.609 4.334 1.425 6.472.393 1.037.86 2.047 1.497 3.132.633 1.086 1.435 2.245 2.295 3.363 1.688 2.217 3.603 4.187 5.838 6.184 1.098.991 2.265 2.013 3.444 3.023 1.175 1.01 2.363 2.01 3.486 2.952 1.126.943 2.19 1.828 3.21 2.761a49.128 49.128 0 012.945 2.925c.269.318.523.648.766.988.241.34.474.69.789 1.3.315.61.715 1.485 1.012 2.392.3.908.498 1.849.604 2.8.101.954.108 1.915.039 2.66-.071.745-.213 1.27-.438 1.757-.227.49-.532.94-.903 1.333a4.683 4.683 0 01-1.35.986c-1.083.53-2.537.762-3.842.478a6.863 6.863 0 01-1.763-.647 4.47 4.47 0 01-1.866-1.853c-.773-1.65-.938-3.523-.961-5.325V78.1h-16.91c0 2.394-.006 4.786.003 7.18.003.438.006.88.025 1.542.032 1.353.176 3.336.569 5.036.192.861.428 1.715.705 2.52.275.805.597 1.56.98 2.283.384.726.835 1.417 1.337 2.064a14.853 14.853 0 001.665 1.807 20.86 20.86 0 002.713 1.978c2.83 1.776 6.153 2.669 9.195 3.172 4.067.645 8.127.768 12.256.006a29.01 29.01 0 002.865-.68 16.772 16.772 0 002.221-.836 19.966 19.966 0 001.973-1.045c.64-.384 1.26-.802 2.135-1.561.876-.759 2.003-1.86 2.937-3.112a15.812 15.812 0 002.203-4.126c.526-1.477.841-3.025.938-4.59a35.101 35.101 0 00-.154-7.79 20.306 20.306 0 00-.968-4.126 17.557 17.557 0 00-.882-2.125 32.365 32.365 0 00-3.511-5.621c-.708-.902-1.464-1.763-2.584-2.927a131.865 131.865 0 00-4.111-4.067c-2.866-2.732-5.885-5.294-8.851-7.906-1.559-1.394-3.051-2.91-4.21-4.441-.356-.451-.68-.927-.968-1.423-.684-1.17-1.213-2.706-1.275-4.124-.04-.694-.007-1.39.096-2.078.097-.586.23-1.012.428-1.405.198-.397.461-.758.776-1.07.312-.31.675-.57 1.095-.785a6.35 6.35 0 014.392-.48 4.83 4.83 0 011.47.654c.909.582 1.487 1.654 1.739 2.588.318 1.155.487 2.346.5 3.544v6.106h16.022a147.554 147.554 0 00-.059-3.822c-.03-1.2-.077-2.398-.139-3.597-.099-2.03-.273-3.444-.626-5.116-.312-1.55-.811-3.196-1.736-4.8a12.882 12.882 0 00-1.551-2.156 15.955 15.955 0 00-3.573-2.965 27.033 27.033 0 00-1.742-.988c-.591-.31-1.194-.6-2.623-1.07-1.423-.47-3.675-1.12-5.979-1.46a26.316 26.316 0 00-6.962-.096c-2.307.277-4.579.863-5.995 1.284-1.417.42-1.98.677-2.534.953a19.97 19.97 0 00-1.612.903c-.585.357-1.141.758-1.664 1.2zM246.1 83.955c-.003 2.61-.01 5.256.597 7.898.189.862.425 1.716.702 2.52.277.805.6 1.561.983 2.284.384.725.832 1.416 1.337 2.063a14.67 14.67 0 001.665 1.807 20.86 20.86 0 002.713 1.978c2.827 1.776 6.15 2.669 9.192 3.172 4.07.645 8.127.769 12.256.007a29.646 29.646 0 002.868-.68 17.019 17.019 0 002.221-.837 20.092 20.092 0 001.973-1.045c.64-.384 1.26-.802 2.136-1.561.872-.759 2.002-1.86 2.936-3.111a15.026 15.026 0 002.178-4.127c.504-1.475.773-3.026.922-4.244a23.59 23.59 0 00.188-2.973c.008-.879-.014-1.758-.065-2.635a35.099 35.099 0 00-.24-2.529 20.163 20.163 0 00-.965-4.127 17.744 17.744 0 00-.885-2.125 32.2 32.2 0 00-3.512-5.62 37.123 37.123 0 00-2.58-2.927 132.046 132.046 0 00-4.115-4.067c-2.862-2.733-5.881-5.294-8.851-7.906-2.005-1.793-3.895-3.806-5.129-5.773a9.201 9.201 0 01-1.197-6.442c.065-.436.198-.863.399-1.257a4.1 4.1 0 01.773-1.069 4.376 4.376 0 011.098-.785 6.35 6.35 0 014.392-.48 4.828 4.828 0 011.47.654c.909.581 1.487 1.654 1.736 2.588.359 1.298.473 2.36.503 3.543v6.107h16.018c-.003-1.275-.022-2.55-.055-3.823-.031-1.2-.077-2.398-.139-3.596-.102-2.033-.273-3.444-.626-5.117-.315-1.55-.811-3.195-1.736-4.8a13.114 13.114 0 00-1.551-2.155 15.987 15.987 0 00-3.576-2.965 27.235 27.235 0 00-1.739-.988c-.594-.31-1.195-.601-2.62-1.07-1.429-.47-3.681-1.12-5.979-1.46a26.329 26.329 0 00-6.963-.096c-2.311.276-4.579.863-5.995 1.283-1.418.421-1.98.677-2.535.954-.551.277-1.09.578-1.615.903-.523.327-1.03.678-1.662 1.208a19.013 19.013 0 00-2.081 2.014 15.357 15.357 0 00-1.788 2.532c-.51.9-.928 1.851-1.272 2.855-1.045 3.096-1.386 6.394-1.11 9.6.169 2.13.613 4.334 1.428 6.471.393 1.037.86 2.048 1.494 3.133.637 1.086 1.441 2.245 2.295 3.363 1.692 2.216 3.603 4.187 5.838 6.184 1.098.991 2.269 2.012 3.444 3.023 1.175 1.01 2.366 2.01 3.489 2.952 1.123.942 2.191 1.828 3.208 2.762a48.629 48.629 0 012.61 2.573c.616.657.863.994 1.104 1.336.244.343.473.692.785 1.303.316.612.712 1.484 1.013 2.392.577 1.759.796 3.615.643 5.46-.069.745-.211 1.27-.436 1.756a4.886 4.886 0 01-2.192 2.293 6.086 6.086 0 01-3.904.503 6.904 6.904 0 01-1.763-.647 4.317 4.317 0 01-1.114-.83 4.578 4.578 0 01-.752-1.023c-.773-1.65-.935-3.523-.958-5.325V78.1h-16.91v5.855h.003zm63.291-56.604h-16.656v77.49h16.656v-77.49z" clip-rule="evenodd"/></svg>