<svg xmlns="http://www.w3.org/2000/svg" width="319" height="132" fill="none"><path fill="#ED1D24" fill-rule="evenodd" d="M64.421 80.706c0 10.995-10.076 18.23-20.249 18.23H11V33.643h30.415c11.694 0 20.153 5.88 20.153 17.938 0 10.32-8.934 13.405-8.934 13.405 0 .097 11.787 2.799 11.787 15.72zm-19.393-27.29c0-3.667-2.47-6.177-6.18-6.177H26.966v12.155h11.597c4.187 0 6.466-3.085 6.466-5.978zm2.092 25.458c0-3.76-2.757-6.364-8.555-6.364H26.968v12.826h11.884c4.85 0 8.268-1.734 8.268-6.462zm82.928-12.635c0 19.191-10.934 34.236-29.847 34.236-18.822 0-29.85-15.044-29.85-34.236C70.35 47.142 81.376 32 100.198 32c18.916 0 29.85 15.145 29.85 34.24zm-15.971 0c0-10.225-4.652-18.519-13.873-18.519-9.22 0-13.782 8.294-13.782 18.52 0 10.319 4.562 18.613 13.782 18.613 9.221 0 13.873-8.294 13.873-18.614zm71.71 12.924c0 14.37-12.927 21.315-25.092 21.315-14.07 0-21.292-5.403-26.993-12.248l10.357-10.226c4.371 5.598 10.079 8.394 16.445 8.394 5.227 0 8.743-2.604 8.743-6.465 0-4.144-3.107-5.435-11.597-7.232l-2.279-.48c-10.226-2.162-18.631-8.005-18.631-19.676C136.74 39.715 147.1 32 160.785 32c11.6 0 19.106 5.017 23.671 10.226l-10.079 10.03c-3.138-3.377-7.887-6.078-13.307-6.078-3.707 0-7.888 1.737-7.888 6.078 0 3.952 4.356 5.388 9.883 6.56l2.282.48c9.258 1.954 20.44 4.823 20.44 19.867zm61.73 7.138c-6.651 9.644-12.827 14.177-25.66 14.177-18.254 0-30.041-15.24-30.041-34.625 0-18.419 10.647-33.756 30.228-33.756 10.738 0 18.438 4.245 25.004 14.181l-13.12 8.774c-2.663-4.63-6.083-7.329-11.787-7.329-7.219 0-14.163 6.497-14.163 18.13 0 13.04 7.512 19 14.641 19 6.176 0 9.026-3.085 11.69-7.521l13.208 8.969zm60.874 12.635h-17.107V73.185h-19.675v25.75h-17.014V33.644h17.014v24.014h19.675V33.643h17.107v65.293z" clip-rule="evenodd"/></svg>