<svg xmlns="http://www.w3.org/2000/svg" width="319" height="132" fill="none"><path fill="#005BAA" d="M275.345 82.574c.138-1.265.218-2.542.218-3.836 0-19.581-16.132-35.446-36.036-35.446-19.898 0-36.028 15.865-36.028 35.446 0 19.576 16.13 35.434 36.028 35.434 15.137 0 28.076-9.161 33.424-22.178l-15.532-2.737c-3.44 6.333-9.95 10.6-17.392 10.6-9.878 0-18.058-7.473-19.703-17.284h55.021zm-35.318-24.571c8.435 0 15.639 5.464 18.58 13.198h-37.181c2.932-7.734 10.152-13.198 18.601-13.198zM193.813 44.776h-18.402V112.9h18.402V44.776zM184.619 17c-5.681 0-10.267 4.638-10.267 10.328 0 5.682 4.586 10.308 10.267 10.308 5.658 0 10.254-4.626 10.254-10.308 0-5.69-4.596-10.328-10.254-10.328zM62.78 22.935v36.672H23.116V22.935H3v89.903h20.115V76.164h39.666v36.674h20.132V22.935H62.78zM145.838 44.808v3.655a35.092 35.092 0 00-18.333-5.132c-19.508 0-35.33 15.855-35.33 35.421 0 19.562 15.822 35.421 35.33 35.421a35.149 35.149 0 0017.908-4.883v3.549h17.956V44.808h-17.531zm-17.435 54.43c-11.386 0-20.59-9.163-20.59-20.478 0-11.325 9.204-20.495 20.59-20.495 11.382 0 20.601 9.17 20.601 20.495 0 11.315-9.219 20.479-20.601 20.479zM313.613 38.45c-16.946 2.973-29.83 17.803-30.028 35.688V112.9h17.62l.01-39.49c0-9.04 6.746-16.5 15.442-17.57l-3.044-17.39z"/></svg>