<svg xmlns="http://www.w3.org/2000/svg" width="319" height="131" fill="none"><path fill="#0056A8" d="M303.786 82.915c-2.376 2.472-5.069 3.947-8.448 4.62-2.281.456-4.278.552-6.596.314-3.072-.313-5.608-1.29-8.08-3.12-2.022-1.492-3.47-3.107-4.736-5.27-.976-1.675-1.544-3.242-1.86-5.149-.444-2.646-.327-4.975.377-7.563 1.607-5.885 6.081-10.057 12.11-11.299 3.443-.709 6.504-.636 9.908.234 2.425.62 4.35 1.665 6.184 3.354a12.349 12.349 0 012.707 3.511c.864 1.634 1.212 3.222 1.113 5.062h-10.754c-.233-1.426-.924-2.563-2.085-3.437-1.503-1.135-3.443-1.225-5.051-.241-1.098.676-1.819 1.596-2.209 2.817-.926 2.907-.967 5.612-.142 8.548a6.445 6.445 0 001.886 3.083c1.075 1.016 2.416 1.433 3.887 1.218a3.622 3.622 0 002.266-1.21 4.608 4.608 0 001.181-2.397c.118-.659.185-1.216.221-1.884h11.337c.226 3.383-.858 6.355-3.216 8.81zM260.443 51.599h11.761v-8.224h-11.761V51.6zM260.443 86.955h11.761v-31.13h-11.761v31.13zM236.081 59.11c1.547-1.338 3.022-2.283 4.888-3.138 3.038-1.389 6.076-1.614 9.29-.685 3.447 1 5.93 3.4 7.017 6.79.523 1.628.749 3.074.749 4.783v20.09h-12.491V68.884c0-.604-.074-1.116-.257-1.695-.319-1.037-1.012-1.8-2.024-2.223-2.214-.931-4.731-.107-5.946 1.946-.508.856-.74 1.7-.74 2.695V86.95H224.47V55.82h11.349l.262 3.29zM96.981 59.11c1.547-1.338 3.022-2.283 4.885-3.138 3.04-1.389 6.079-1.614 9.291-.685 3.449 1 5.932 3.4 7.02 6.79.522 1.628.748 3.074.748 4.783v20.09h-12.491V68.884c0-.604-.077-1.116-.254-1.695-.323-1.037-1.016-1.8-2.03-2.223-2.212-.931-4.73-.107-5.943 1.946-.51.856-.741 1.7-.741 2.695V86.95H85.37V55.82h11.348l.263 3.29zM171.11 75.51c.901.15 1.654.337 2.519.622a2.002 2.002 0 011.378 1.523 2.255 2.255 0 01-.637 2.138 3.613 3.613 0 01-2.092 1.06 6.076 6.076 0 01-3.149-.294 4.267 4.267 0 01-1.337-.754 3.352 3.352 0 01-1.098-1.635 5 5 0 01-.235-1.66h-11.518v.663c0 1.073.169 1.982.549 2.986.578 1.51 1.369 2.676 2.564 3.778 1.559 1.444 3.187 2.344 5.238 2.925 4.258 1.2 8.093 1.438 12.469.774a17.343 17.343 0 005.593-1.804 11.332 11.332 0 002.166-1.432c3.111-2.586 4.265-6.532 3.022-10.36-.47-1.442-1.213-2.554-2.371-3.548-1.586-1.36-3.192-2.228-5.209-2.81a92.75 92.75 0 00-1.263-.353 56.502 56.502 0 00-7.12-1.5c-.678-.099-1.249-.207-1.918-.362a4.474 4.474 0 01-.853-.287 1.387 1.387 0 01-.703-1.842 2.736 2.736 0 011.741-1.433c1.315-.377 2.526-.345 3.816.09 1.238.417 2.015 1.542 1.961 2.836h11.099a10.738 10.738 0 00-.679-3.758c-.47-1.286-1.184-2.264-2.269-3.111a10.827 10.827 0 00-2.965-1.679 16.244 16.244 0 00-3.217-.884c-2.751-.47-5.118-.606-7.903-.443-1.591.091-2.933.286-4.491.647-2.096.488-3.784 1.29-5.478 2.604-1.439 1.117-2.381 2.422-2.984 4.13a7.444 7.444 0 00-.442 2.278 8.63 8.63 0 00.648 3.799c.915 2.273 2.541 3.884 4.841 4.792 1.165.46 2.186.761 3.415 1.01 2.423.496 4.474.881 6.912 1.293zM33.432 73.53h-8.071V63.314h5.245c.996 0 1.84-.023 2.835-.078 1.38-.074 2.526-.685 3.348-1.785a3.975 3.975 0 00.786-1.895 6.841 6.841 0 00.038-1.733c-.224-2.274-2.126-3.979-4.432-3.979h-7.82v33.108H12V43.372h21.84c.868 0 1.602.016 2.468.064 5.794.307 10.568 3.492 13.022 8.695 1.278 2.709 1.712 5.313 1.384 8.286-.693 6.259-5.116 11.127-11.33 12.475-2.06.448-3.843.638-5.952.638zM208.835 55.227a21.782 21.782 0 00-3.564-.275c-1.259 0-2.32.08-3.565.275-3.61.56-6.535 1.996-9.171 4.5-2.821 2.684-4.366 5.86-4.719 9.715-.216 2.368-.031 4.409.613 6.698.987 3.513 2.841 6.227 5.766 8.444 1.925 1.465 3.84 2.342 6.212 2.854 1.685.366 3.14.517 4.864.517 1.723 0 3.18-.151 4.867-.517 2.37-.512 4.285-1.39 6.21-2.854l-6.757-7.29c-1.075 2.363-3.875 3.416-6.263 2.352-1.1-.49-1.88-1.26-2.377-2.351a10.759 10.759 0 01-.89-3.004c-.334-2.186-.296-4.085.136-6.257a7.985 7.985 0 011.236-3.009c1.389-2.097 4.231-2.683 6.354-1.31.555.36.96.762 1.321 1.31a7.956 7.956 0 011.238 3.01c.427 2.171.47 4.07.136 6.256a10.862 10.862 0 01-.891 3.004l6.757 7.289c2.927-2.217 4.78-4.93 5.766-8.444.644-2.29.827-4.33.613-6.698-.353-3.855-1.895-7.03-4.717-9.715-2.638-2.507-5.561-3.94-9.175-4.5zM153.651 84.514a143.646 143.646 0 01-.327-7.31 700.789 700.789 0 01-.133-9.614 19.877 19.877 0 00-.678-5.13c-.605-2.314-1.974-4.072-4.082-5.24a13.373 13.373 0 00-3.867-1.444c-4.536-.961-8.539-1.041-13.11-.256-1.284.22-2.347.525-3.553 1.02-2.784 1.14-4.703 3.217-5.596 6.065a7.37 7.37 0 00-.303 3.21c.025.208.077.384.172.574l10.583.256a4.62 4.62 0 01.289-1.86c.346-.955 1.028-1.633 1.994-1.982 1.419-.516 2.786-.536 4.225-.07.946.307 1.617.982 1.911 1.921a1.833 1.833 0 01-.265 1.67 2.495 2.495 0 01-1.21.936 8.759 8.759 0 01-.908.29 41.899 41.899 0 01-4.229.91c-1.19.194-2.191.377-3.37.615a37.893 37.893 0 00-4.493 1.16 9.407 9.407 0 00-3.639 2.1c-1.428 1.294-2.245 2.826-2.517 4.729a9.515 9.515 0 00.145 3.62c.741 3.248 3.018 5.649 6.25 6.58 3.581 1.028 6.942.86 10.4-.523 1.683-.67 2.964-1.598 4.122-2.98l-.747-5.351a4.566 4.566 0 01-2.09 1.765 7.941 7.941 0 01-2.512.654 5.646 5.646 0 01-2.159-.185 3.081 3.081 0 01-1.493-.888 2.64 2.64 0 01-.682-1.307 2.064 2.064 0 01.713-2.06c.414-.35.82-.585 1.327-.77a46.701 46.701 0 013.537-1.136 27.493 27.493 0 004.217-1.538 11.73 11.73 0 01-.025 3.247 5.169 5.169 0 01-.833 2.218l.747 5.351c.231.76.445 1.396.707 2.14.149.418.342.74.637 1.066h11.658a4.954 4.954 0 01-.813-2.453zM83.042 84.514a143.992 143.992 0 01-.326-7.31 661.67 661.67 0 01-.133-9.614 19.731 19.731 0 00-.678-5.13c-.605-2.314-1.973-4.072-4.083-5.24a13.376 13.376 0 00-3.867-1.444c-4.536-.961-8.54-1.041-13.111-.256-1.281.22-2.347.525-3.551 1.02-2.785 1.14-4.703 3.217-5.597 6.065a7.374 7.374 0 00-.301 3.21c.023.208.075.384.17.574l10.583.256a4.652 4.652 0 01.29-1.86c.346-.955 1.027-1.633 1.993-1.982 1.421-.516 2.787-.536 4.224-.07.947.307 1.62.982 1.916 1.921.181.588.09 1.167-.269 1.67-.314.444-.7.742-1.21.936a8.72 8.72 0 01-.91.29c-1.469.393-2.727.663-4.227.91-1.188.194-2.19.377-3.371.615-1.6.314-2.938.662-4.494 1.16a9.44 9.44 0 00-3.637 2.1c-1.428 1.294-2.243 2.826-2.517 4.729a9.466 9.466 0 00.147 3.62c.737 3.248 3.018 5.649 6.246 6.58 3.585 1.028 6.943.86 10.402-.523 1.681-.67 2.966-1.598 4.124-2.98l-.747-5.351a4.564 4.564 0 01-2.094 1.765 7.93 7.93 0 01-2.508.654 5.65 5.65 0 01-2.16-.185 3.068 3.068 0 01-1.492-.888 2.626 2.626 0 01-.684-1.307 2.07 2.07 0 01.713-2.06c.412-.35.818-.585 1.328-.77 1.229-.447 2.28-.783 3.538-1.136a27.552 27.552 0 004.217-1.538 11.78 11.78 0 01-.027 3.247 5.204 5.204 0 01-.83 2.218l.746 5.351c.23.76.443 1.396.707 2.14.147.418.34.74.635 1.066h11.658a4.968 4.968 0 01-.813-2.453z"/></svg>