<svg xmlns="http://www.w3.org/2000/svg" width="320" height="132" fill="none"><path fill="#00ACEC" d="M188.089 59.562L180.258 77.7l-10.613-18.14h-18.559L140.601 83.1l-5.306-23.775h-16.603s-2.43.014-4.481.919a14.54 14.54 0 00-3.052 1.934L95.632 76.246c-9.605 7.772-26.41 12.253-31.108 12.469-22.363 1.043-27.026-14.653-25.476-22.07 3.993-19.169 32.928-23.712 48.117-23.712 7.201 0 13.11 1.461 17.679 2.762l4.392-8.05-3.228-.703c-4.007-.514-10.254-1.906-20.915-1.94-43.115-.147-65.247 12.293-71.989 28.247-7.607 18.007 5.24 34.302 41.362 34.302 6.552 0 19.514-.585 31.697-5.1H97.92l6.03-5.497h18.207l.765 5.88h19.845l-.027-.14h10.606l8.461-19.015L172.9 92.68l17.212.007 14.762-33.125h-16.785zM110.861 80.31l9.685-9.477.921 9.247-10.606.23zm125.608-20.748h-27.134l-14.769 33.125h27.141c21.714.181 30.54-8.404 33.464-14.986 3.262-7.285.46-18.14-18.702-18.14zm2.809 16.01c-2.078 8.3-14.004 8.843-18.065 8.843h-4.812l7.134-16.56h4.812c4.393-.007 12.644.842 10.931 7.716z"/><path fill="#00ACEC" d="M289.676 59.325L276.119 73.19l-4.569-13.63h-16.596l10.836 25.25-10.761 10.958h14.22s2.768-.348 3.919-.765c1.151-.425 2.782-2.13 2.782-2.13l32.441-33.514-18.715-.035z"/></svg>