<svg xmlns="http://www.w3.org/2000/svg" width="321" height="131" fill="none"><path fill="#FC0204" fill-rule="evenodd" d="M12 29h297.391v72.391H12V29z" clip-rule="evenodd"/><path fill="#fff" fill-rule="evenodd" d="M268.594 61.935v4.886h7.826v-4.886c0-2.092-1.767-3.839-3.88-3.839-2.186 0-3.946 1.747-3.946 3.839zm20.798-6.912c-10.649-5.234-21.786-5.585-32.715-.978-9.022 3.77-13.25 14.105-9.377 23.042 1.975 4.608 5.286 7.817 10.013 9.564 10.788 4.047 21.43 3.769 31.935-.978 4.583-2.026 7.759-5.377 9.45-10.054h-13.819c-1.553 4.89-6.839 7.677-11.84 6.145a14.79 14.79 0 01-1.272-.49c-1.978-.908-3.173-2.791-3.173-4.956v-3.49h30.455c.914-7.472-2.822-14.387-9.657-17.805zm-107.944 6.912a3.843 3.843 0 00-3.87-3.839c-2.119 0-3.876 1.747-3.876 3.839v4.886h7.746v-4.886zm22.636 10.892c.917-7.471-2.822-14.386-9.658-17.804-10.578-5.234-21.785-5.585-32.712-.978-9.028 3.77-13.182 14.105-9.382 23.042 1.975 4.608 5.359 7.817 10.082 9.564 10.719 4.047 21.434 3.769 31.942-.978 4.509-2.026 7.686-5.377 9.376-10.054h-13.821c-1.48 4.89-6.766 7.677-11.777 6.145-.418-.139-.843-.281-1.262-.49-1.978-.908-3.17-2.791-3.17-4.956v-3.49h30.382zm7.89 7.26V48.741h-5.493v-7.68h31.587v39.026h5.567v7.68h-37.154v-7.68h5.493zm-84.668-28.346l11.354-5.864-3.598-6.772L123.71 44.9l3.596 6.842zm15.867 28.346V52.65h-30.529v7.68h5.563v19.757h-5.563v7.68h36.092v-7.68h-5.563zM66.532 59.283l13.33-18.222h27.777v7.68h-5.57v31.346h5.57v7.68h-36.1v-7.68h5.57V59.77L56.594 87.768 36.006 59.77v20.317h5.57v7.68H21.625v-7.68h5.497V48.741h-5.497v-7.68h31.513l13.394 18.222z" clip-rule="evenodd"/></svg>