<svg xmlns="http://www.w3.org/2000/svg" width="320" height="132" fill="none"><path fill="#000" fill-rule="evenodd" d="M244.328 26.508H254.884v10.205H244.328V26.508zm-4.732 76.424v-8.497c4.48 0 4.732-1.624 4.732-5.662V42.209h11.017V91.436c0 1.959-.21 3.832-.586 5.54-.879 3.747-5.739 5.787-9.132 5.913-.753.043-5.946-.041-6.031.043zm-16.839-42.898c0-4.497-2.974-9.412-8.082-9.412-6.744 0-9.132 5.123-9.132 11.37v23.906l-11.143-.084V43.042h10.513v5.08c3.979-5.371 6.241-6.663 13.656-6.663 3.476 0 6.492 1.166 9.592 3.04 5.487 3.29 5.111 10.62 5.111 16.16v25.156h-10.513v-25.78h-.002zm-48.085-.125c-.167-2.54-.923-4.665-2.179-6.33-1.255-1.664-3.392-2.664-6.45-2.957-2.932.291-5.027 1.291-6.283 2.999-1.299 1.666-2.095 3.79-2.43 6.288h17.342zm117.868 0c-.167-2.54-.923-4.665-2.178-6.33-1.256-1.664-3.392-2.664-6.451-2.957-2.89.291-4.983 1.291-6.282 2.999-1.3 1.666-2.094 3.79-2.429 6.288h17.34zM185.563 73.405c-4.189 12.992-11.226 13.743-19.897 13.785-6.45 0-12.273-2.75-15.414-6.957-3.141-4.206-4.734-9.453-4.859-15.66v-.332-.374c0-3.665.587-7.206 1.801-10.62 1.172-3.374 3.309-6.247 6.326-8.538 1.465-1.165 3.057-1.957 4.858-2.498 1.802-.5 3.602-.75 5.445-.75h3.183a20 20 0 013.182.25c1.09.165 2.094.374 3.142.624 2.849.75 5.361 2.29 7.456 4.623 2.137 2.332 3.643 4.914 4.481 7.83.293 1.375.546 2.708.671 3.998.125 1.333.21 2.666.21 3.997v1.666c0 .583-.042 2.25-.085 2.874h-28.984c-.083 6.163 3.518 11.08 8.712 11.244 5.027.126 7.415-1.582 9.132-5.162h10.64zm117.91 0c-4.231 12.992-11.268 13.743-19.938 13.785-6.451 0-12.315-2.75-15.458-6.957-3.143-4.206-4.732-9.453-4.857-15.66v-.332-.374c0-3.665.586-7.206 1.8-10.62 1.215-3.374 3.31-6.247 6.326-8.538 1.509-1.165 3.141-1.957 4.9-2.498a20.2 20.2 0 015.446-.75h3.225c1.047 0 2.094.082 3.183.25a36.69 36.69 0 013.099.624c2.85.75 5.363 2.29 7.499 4.623 2.092 2.332 3.602 4.914 4.44 7.83.335 1.375.544 2.708.669 3.998.169 1.333.21 2.666.21 3.997v1.666c0 .583-.04 2.25-.083 2.874h-28.985c-.085 6.163 3.517 11.08 8.754 11.244 4.983.126 7.371-1.582 9.09-5.162h10.68zM117.456 42.626h10.722v6.871c2.054-2.124 4.189-8.371 14.284-7.995v11.327c-2.68 0-7.706-.041-10.764 2.708-2.179 1.957-3.225 4.913-3.268 8.952l-.085 21.573h-10.889V42.626zm-41.05 21.908c0 3.457.795 6.453 2.471 9.078 1.634 2.625 4.524 4.165 8.67 4.498 4.106-.333 6.954-1.873 8.545-4.54 1.634-2.705 2.43-5.661 2.43-9.036v-.543-.625c-.127-2.749-.923-5.33-2.347-7.703-1.382-2.417-3.854-3.915-7.415-4.54h-.46c-.126-.041-.292-.082-.417-.124-.167 0-.335 0-.462-.041h-.418c-3.729.291-6.409 1.75-8.084 4.373-1.676 2.623-2.514 5.704-2.514 9.203zm-10.514.374c0-6.788 1.718-12.203 5.194-16.327 3.477-4.123 8.336-6.205 14.535-6.205h3.183a16.515 16.515 0 012.471.042c.88.083 1.718.208 2.555.374 5.32.874 9.172 3.5 11.604 7.747 2.428 4.247 3.686 8.871 3.769 13.785v.582c-.042 6.373-1.675 11.704-4.943 15.91-3.268 4.206-8.336 6.33-15.122 6.33l-3.182.082c-6.744-.081-11.77-2.206-15.079-6.412-3.352-4.205-4.984-9.536-4.984-15.908zm-38.219 2.804a17.51 17.51 0 002.49 6.526c1.224 1.933 2.973 3.125 5.303 3.556.738.135 1.46.186 2.206.135 2.537-.18 4.484-1.573 5.812-3.527 1.29-1.962 2.066-4.335 2.324-7.089.193-2.06.184-4.266-.138-6.303-.327-2.077-1.029-4.027-2.017-5.85-1.028-1.857-2.631-3.046-4.811-3.621-1.213-.32-2.205-.508-3.448-.24-2.474.527-4.366 1.88-5.649 4.03-1.19 1.995-1.911 4.267-2.186 6.836-.193 1.809-.187 3.759.114 5.547zm19.62 15.561c-4.296 3.365-10.063 3.509-15.292 3.096-5.28-.422-9.292-2.684-12.102-6.759-3.058-4.539-4.609-9.62-4.524-15.202 0-5.664 1.508-10.705 4.566-15.202 3.058-4.457 7.623-6.747 13.739-6.747 9.633-.041 10.346 2.373 13.069 6.914v-5.664h10.513l.148 37.322c.014 3.25.469 12.388-2.871 16.946-1.676 2.247-3.73 3.87-6.284 4.829-2.555.959-5.193 1.459-7.875 1.582-.335 0-.671.084-1.006.084H38.37l-3.183.085c-.21-.042-.418-.085-.586-.085H33.135c-3.98-.041-6.995-.997-10.305-2.832-3.35-1.791-5.026-5.582-5.153-10.121l11.855.084c.503 4.707 3.142 5.33 7.372 5.33 9.647 0 10.39-6.585 10.39-13.66z" clip-rule="evenodd"/></svg>