<svg xmlns="http://www.w3.org/2000/svg" width="321" height="132" fill="none"><path fill="#37C6F4" fill-rule="evenodd" d="M7 23h293.33c7.684 0 13.974 6.284 13.974 13.968v57.865c0 7.684-6.29 13.968-13.974 13.968H7V23z" clip-rule="evenodd"/><path fill="#2379A8" fill-rule="evenodd" d="M29.915 102.408c-11.092.082-17.608-9.111-7.95-21.802C39.477 58.825 99.037 37.05 191.156 32.925h102.972c9.569-.075 13.776 3.032 13.906 10.928v47.02c-.075 8.83-3.511 11.768-11.912 11.863l-266.207-.328z" clip-rule="evenodd"/><path fill="#fff" fill-rule="evenodd" d="M45.789 67.677l-4.89 9.364h9.015L37.422 98.884h32.812l6.195-11.085h-9.562l11.625-20.102-32.703-.02zM267.169 98.63V73.148h-8.954v-4.952h44.287v4.952h-8.955v25.484h-6.543V73.147h-13.292v25.484h-6.543zm-24.063-11.535h8.791l-4.187-12.896-4.604 12.896zM232.957 98.63l11.03-30.436h7.684l10.608 30.436h-6.619l-2.172-6.543h-12.035l-2.37 6.543h-6.126zm-35.736-30.436h6.837l4.214 23.667 5.785-23.667h7.063l5.102 23.667 4.61-23.667h6.038l-7.165 30.436h-7.096l-5.259-23.312-5.717 23.312h-6.96l-7.452-30.436zm-29.5 15.061c0-4.802 1.298-8.586 3.907-11.365 2.609-2.767 6.161-4.153 10.635-4.153s8.012 1.386 10.6 4.153c2.596 2.78 3.894 6.563 3.894 11.365 0 4.966-1.285 8.852-3.846 11.673-2.554 2.807-6.099 4.22-10.648 4.22-4.549 0-8.114-1.406-10.683-4.213-2.575-2.808-3.859-6.7-3.859-11.68zm6.346.041c0 3.572.696 6.284 2.076 8.128 1.387 1.858 3.415 2.78 6.086 2.78 2.684 0 4.713-.922 6.099-2.78 1.38-1.844 2.076-4.556 2.076-8.128 0-3.504-.703-6.174-2.096-8.012-1.407-1.837-3.429-2.76-6.079-2.76-2.644 0-4.658.93-6.059 2.767-1.4 1.851-2.103 4.515-2.103 8.005zM140.23 98.631V68.195h12.649c3.538 0 6.134.622 7.8 1.858 1.667 1.237 2.5 3.17 2.5 5.8 0 2.164-.464 3.83-1.4 5.012-.942 1.182-2.438 2.022-4.501 2.514 1.66.184 2.876.69 3.641 1.523.764.833 1.27 2.234 1.516 4.221l.539 4.392c.164 1.223.369 2.247.615 3.074.253.826.56 1.509.95 2.042h-7.056a6.55 6.55 0 01-.526-1.462c-.13-.553-.239-1.304-.321-2.247l-.43-4.61c-.171-1.851-.458-2.971-.881-3.36-.417-.383-1.442-.575-3.088-.575h-5.614v12.254h-6.393zm6.393-17.206h4.132c2.596 0 4.378-.314 5.341-.928.963-.622 1.442-1.701 1.442-3.245 0-1.632-.458-2.766-1.366-3.401-.909-.635-2.712-.95-5.417-.95h-4.132v8.525zm-32.929 17.206V68.195h20.191v5.034h-13.586v7.186h12.739v4.951h-12.739v8.19h14.057v5.075h-20.662zm-28.87 0v-5.84l15.804-19.808H85.67v-4.788h21.85v5.881l-15.634 19.52h16.01v5.035H84.823z" clip-rule="evenodd"/><path fill="#2379A8" fill-rule="evenodd" d="M68.82 95.947l2.61-4.884H53.07l7.062-13.804h-7.718L41.772 95.947H68.82zm-21.617-25.86l-2.61 4.89h18.36l-6.735 12.93h7.828l10.21-17.82H47.204z" clip-rule="evenodd"/></svg>