<svg xmlns="http://www.w3.org/2000/svg" width="319" height="132" fill="none"><path fill="#055B96" d="M79.112 65.995s7.862-3.71 7.862-11.007c0-8.35-5.404-14.986-18.35-14.986H11v51.846h57.624c12.946 0 18.35-6.636 18.35-14.986 0-7.306-7.862-10.867-7.862-10.867zM70.409 78.48h-44.15v-5.953h44.15v5.953zm0-19.12h-44.15v-5.948h44.15v5.949zm21.455-4.197c0-7.768 7.58-14.878 14.612-14.878h53.383v13.418h-51.596v5.658h51.594l.005 13.408h-51.599v5.655h51.594v13.418h-53.381c-7.032 0-14.612-7.103-14.612-14.876V55.164zm92.43 4.158L214.286 40h24.742l-39.455 25.975 39.299 25.868h-24.747L184.294 72.52l-.005 19.323h-17.046V40h17.046l.005 19.322zM290.954 40h-38.987c-10.463 0-17.43 6.748-17.43 14.597v22.615c0 7.853 6.97 14.594 17.43 14.594h38.987c10.465 0 17.437-6.74 17.437-14.594V54.597c0-7.849-6.972-14.597-17.437-14.597zm1.336 38.322h-41.652V53.49h41.654v24.833h-.002z"/></svg>