<svg xmlns="http://www.w3.org/2000/svg" width="319" height="131" fill="none"><path fill="#000" d="M16.42 48.877v-.468c0-3.746 3.752-7.258 7.505-7.258 4.222 0 7.74 3.278 7.74 7.492v.936c0 3.278-3.518 6.79-7.036 6.79H23.22c-3.518 0-6.802-3.512-6.802-7.492zM0 39.746v40.27c0 2.107 1.876 3.98 3.753 3.98h40.344c2.111 0 3.753-2.107 3.753-4.214V39.98c0-2.575-2.111-3.98-4.691-3.98H3.987C2.111 36 0 37.873 0 39.746zm76.466 23.413h18.061l.235 16.155c0 1.638 1.642 2.575 3.284 2.575h.703c1.642 0 3.284-1.17 3.284-2.81V41.62c0-2.341-1.407-3.278-3.518-3.278-4.222 0-3.988 2.81-3.988 7.024V56.37l-18.06.234V41.151c0-1.873-1.877-2.81-3.52-2.81-1.641 0-3.752.937-3.752 2.576v38.162c0 1.873 1.407 2.81 3.284 2.81h.469c4.222 0 3.518-3.512 3.518-7.492V63.159zm103.675-6.088c0-.702 3.284-.936 3.988-.936h3.987c5.63 0 7.506 3.98 7.506 9.6v.467c0 6.088-2.346 9.6-8.209 9.6h-3.284c-.939 0-3.988 0-3.988-.937V57.071zm5.63 25.052c10.555 0 17.357-4.917 17.357-15.452V65.5c0-9.365-5.864-15.452-15.012-15.452h-1.876c-5.864 0-13.37.468-13.37 6.321v36.056c0 1.639 1.876 2.575 3.518 2.575h.235c1.876 0 3.518-.936 3.518-2.81V81.42l5.63.703zm29.789-14.75v-3.278c0-4.916 2.58-8.897 7.505-8.897h2.111c6.099 0 7.741 4.449 7.741 10.536v.234c0 3.044-.469 5.853-1.877 7.492-.703.937-1.407 1.64-2.58 2.108-1.642.702-1.876.468-3.987.702-2.58.468-5.63-.703-7.037-2.107-1.173-1.17-1.876-3.746-1.876-6.79zm-7.272-1.873v1.639c0 10.067 6.099 15.452 16.185 15.452 10.789 0 16.184-5.853 16.184-16.389v-1.17c0-4.449-1.876-9.131-4.222-11.472-2.58-2.576-6.802-3.98-11.962-3.98-10.555 0-16.185 5.384-16.185 15.92zm-91.947 1.873v-2.575c0-5.62 2.346-9.366 7.975-9.366h2.111c4.926 0 7.506 3.747 7.506 8.663v3.98c0 5.385-3.284 8.429-8.679 8.429-6.333.234-8.913-3.278-8.913-9.131zm-7.506-2.575v1.404c0 10.536 5.63 16.155 16.185 16.155h.469c10.086 0 15.715-5.853 15.715-15.92v-2.108c0-9.365-6.098-14.984-15.48-14.984h-.47c-5.16 0-9.147 1.405-11.962 3.98-2.58 2.576-4.457 6.556-4.457 11.473zm157.389 17.09c3.284 0 3.519-1.638 3.519-4.916v-8.428c0-6.322-1.408-11.94 5.16-11.94h4.457c6.567 0 5.394 5.618 5.394 11.94v8.662c0 3.512.47 4.683 3.988 4.683h.234c1.408 0 3.284-.937 3.284-2.341V60.349c0-3.278-1.642-6.087-3.518-7.726-1.642-1.405-5.395-2.341-8.679-2.341h-6.098c-7.975 0-11.494 4.214-11.494 12.174v16.39c0 2.106 1.642 3.043 3.519 3.043h.234zm-110.946-9.364l-.235-16.155h9.852c1.173 0 1.642-1.405 1.642-2.575v-.469c0-1.404-.938-2.575-2.346-2.575h-9.382v-8.663c0-1.873-1.642-2.81-3.519-2.81h-.234c-1.877 0-3.518.937-3.518 3.044v31.373c0 5.854 4.925 8.195 10.789 8.195h6.333c1.408 0 2.346-1.17 2.346-2.575v-.469c.469-6.087-11.728 1.405-11.728-6.321zm151.994-.234c-.469-.703-.234-11.238-.234-12.877 0-3.98-.704-3.278 3.283-3.278h6.568c1.173 0 1.642-1.17 1.642-2.575v-.469c0-1.404-.469-2.107-1.642-2.575l-9.851-.234-.235-9.131c0-1.64-1.642-2.576-3.518-2.576h-.47c-1.876 0-3.518 1.171-3.518 3.278v30.67c0 6.79 3.988 9.366 10.79 9.366h6.333c1.407 0 2.58-.937 2.58-2.341v-.937c0-3.044-3.988-2.107-7.037-2.107-2.58 0-4.691-1.17-4.691-4.214zm-60.282 6.087c0 2.107 1.173 3.512 3.05 3.512h1.407c1.407 0 3.049-1.17 3.049-2.575V53.09c0-1.639-1.407-2.81-3.049-2.81h-.938c-2.111 0-3.519 1.171-3.519 3.279v24.817zm-.938-37.46c0 2.575 2.111 4.682 4.691 4.682 2.346 0 4.692-2.107 4.692-4.214v-.937c0-2.34-2.346-4.214-4.692-4.214-2.345 0-4.691 2.341-4.691 4.683zm61.22 31.373V56.37l9.617-.235h-6.568c-3.987 0-3.283-.703-3.283 3.278.234 1.873 0 12.408.234 12.877zM94.527 56.37h-18.06l-.235-15.453v15.452h18.295zm60.751 16.154V56.369l9.617-.234h-9.852l.235 16.389zM307.272 50.75l9.852.234-9.852-.234-.234-9.131.234 9.131zM94.527 63.159l.235 16.155-.235-16.155h-18.06 18.06z"/></svg>