<svg xmlns="http://www.w3.org/2000/svg" width="320" height="131" fill="none"><path fill="#DD052B" d="M264.135 34.449h21.142v53.985h23.114v8.716h-44.256V34.449zM217.355 34.449H259.4v7.397h-21.794v20.902h19.821v7.403h-19.821v18.283h23.127v8.716h-43.378V34.449zM162.863 34.449h50.846v8.065h-14.972V97.15h-20.245V42.513h-15.629V34.45zM160.322 34h-17.189s-20.415.724-21.986 19.483c-1.571 18.76 19.599 18.373 23.552 26.387 2.518 5.126-3.658 9.04-8.892 9.04h-14.178v8.677h24.034s25.173-1.346 21.634-22.708c-2.268-13.785-17.665-11.643-22.825-20.908-5.161-9.265 3.839-11.884 4.797-11.884h10.934l.119-8.087zM73.483 34.449h42.714v7.397H93.74v20.902h19.82v7.403H93.74v18.283h23.778v8.716H73.483V34.449zM60.456 34.438L46.83 78.188l-14.064-43.75H11l22.32 62.69h16.265l21.76-62.69H60.456z"/></svg>