<svg xmlns="http://www.w3.org/2000/svg" width="319" height="131" fill="none"><path fill="#034EA2" d="M308.206 39.527c4.051 23.232-59.152 53.656-141.184 67.951-82.02 14.295-151.793 7.042-155.838-16.202C7.139 68.043 70.36 37.626 152.38 23.337c82.025-14.307 151.788-7.049 155.826 16.19z"/><path fill="#fff" d="M231.006 74.009l-.418-24.155h7.61v30.448h-10.942l-7.598-24.986h-.166l.425 24.986h-7.567V49.854h11.421l7.069 24.155h.166zM92.637 52.708l-4.21 27.913h-8.305l5.698-30.767h13.677l5.68 30.767h-8.274L92.81 52.708h-.172zM128.493 73.375l3.798-23.521h12.54l.664 30.767h-7.684l-.202-27.661h-.16l-5.139 27.661h-7.801l-5.145-27.661h-.166l-.19 27.661h-7.702l.682-30.767h12.546l3.793 23.521h.166zM67.176 71.942c.302.744.21 1.704.068 2.282-.258 1.021-.953 2.067-2.993 2.067-1.93 0-3.099-1.107-3.099-2.793v-2.977h-8.249l-.006 2.38c0 6.86 5.397 8.932 11.181 8.932 5.563 0 10.143-1.9 10.868-7.03.375-2.658.092-4.399-.03-5.057-1.297-6.44-12.97-8.365-13.837-11.964a4.045 4.045 0 01-.031-1.623c.215-.978.885-2.061 2.81-2.061 1.794 0 2.857 1.113 2.857 2.793v1.9h7.666v-2.159c0-6.704-6.012-7.75-10.364-7.75-5.47 0-9.94 1.808-10.757 6.815-.222 1.384-.252 2.614.067 4.158 1.346 6.28 12.264 8.101 13.85 12.087zM167.157 71.887c.301.738.203 1.673.068 2.251-.253 1.021-.941 2.048-2.969 2.048-1.9 0-3.062-1.107-3.062-2.755l-.006-2.953h-8.163l-.012 2.35c0 6.79 5.348 8.839 11.07 8.839 5.502 0 10.038-1.876 10.758-6.957.375-2.639.11-4.355-.025-5-1.291-6.38-12.841-8.286-13.702-11.854a3.895 3.895 0 01-.03-1.593c.221-.99.879-2.042 2.784-2.042 1.783 0 2.822 1.083 2.822 2.756v1.882h7.61v-2.14c0-6.632-5.963-7.671-10.278-7.671-5.409 0-9.841 1.784-10.64 6.76-.222 1.365-.246 2.571.073 4.109 1.322 6.218 12.134 8.027 13.702 11.97zM192.981 76.02c2.133 0 2.797-1.476 2.944-2.233.062-.332.08-.775.074-1.175v-22.77h7.776v22.07c.018.565-.037 1.728-.068 2.017-.547 5.745-5.083 7.609-10.732 7.609-5.656 0-10.198-1.864-10.739-7.61-.025-.288-.08-1.457-.068-2.017v-22.07h7.77v22.765c0 .4.012.85.074 1.175.172.757.817 2.24 2.969 2.24zM257.124 75.695c2.226 0 3.006-1.41 3.148-2.227.055-.35.073-.781.067-1.169v-4.466h-3.153v-4.49h10.905v8.261a22.2 22.2 0 01-.111 2.03c-.51 5.597-5.366 7.596-10.813 7.596-5.458 0-10.302-1.999-10.824-7.596a27.137 27.137 0 01-.111-2.03l.006-12.954c0-.548.068-1.513.129-2.03.682-5.751 5.342-7.603 10.8-7.603 5.453 0 10.229 1.84 10.794 7.603.099.978.068 2.03.068 2.03v1.027h-7.751v-1.722a7.762 7.762 0 00-.099-1.169c-.129-.683-.719-2.245-3.067-2.245-2.244 0-2.895 1.476-3.061 2.245-.092.406-.129.953-.129 1.452V72.31c-.006.388.018.818.08 1.17.123.805.897 2.214 3.122 2.214z"/></svg>