<svg xmlns="http://www.w3.org/2000/svg" width="319" height="132" fill="none"><path fill="#367CA8" fill-rule="evenodd" d="M64.854 50.16c-.973-.81-2.108-1.62-3.243-1.945L59.663 86.32l9.406-26.267c.972-4.056-1.297-7.46-4.216-9.892zm-15.566-2.27l5.513 37.943 5.513-37.943c-3.243-1.134-7.457-1.296-11.026 0zm-4.54 2.27c-3.081 2.434-5.188 5.839-4.377 9.73l9.405 26.268-1.784-37.943c-1.135.325-2.433 1.135-3.244 1.946zm-19.131 3.568c6.323 11.026 12.81 23.023 18.97 33.562-2.108-9.241-4.377-24.645-7.62-29.024-3.73-5.188-11.35-4.538-11.35-4.538zM14.428 59.24l25.78 29.996L24.32 53.89c-4.215.16-7.784 2.271-9.89 5.35zm53.993 8.107l-4.215 20.59c5.513-9.564 11.026-18.97 16.377-28.697-5.19.485-10.378 2.431-12.162 8.107zm13.62-8.107l-13.62 30.482L92.42 63.618c-2.756-2.919-6.325-4.215-10.378-4.377zM11.024 72.86c8.432 6.484 16.862 13.134 25.294 19.618l-22.7-32.103c-2.109 3.567-2.757 7.782-2.594 12.485zm84.313-5.513a10.673 10.673 0 00-1.946-2.757L72.636 92.803a717.97 717.97 0 0023.999-18.648c.162-2.431-.163-4.861-1.298-6.807zM11.185 85.995l21.89 10.05c-7.297-7.295-14.594-14.268-21.89-21.402v11.352zm85.45.648V76.265L75.88 96.535c7.134-3.247 13.62-6.489 20.755-9.892zm-85.611 9.402c6.648 1.46 13.945 3.245 19.943 4.542L11.024 87.452v8.593zm85.61.489v-7.945c-6.16 4.053-12.647 8.107-18.322 12.16l18.323-4.215zm-85.61 9.403H30.48l-19.456-8.27v8.27zm85.61 0v-7.621c-6.323 2.756-11.836 5.027-17.835 7.621h17.835z" clip-rule="evenodd"/><path fill="#367CA8" fill-rule="evenodd" d="M89.986 49.188c.323-11.512-16.862-11.675-16.537 0-.163 10.7 17.025 11.188 16.537 0zm-55.29-6c.487-11.673-17.513-11.186-16.863 0-.648 11.675 17.998 11.837 16.862 0zm20.105 2.27c6.81.162 9.405-4.703 9.566-9.405C64.692 28.919 60.152 26 54.801 26c-5.35 0-9.565 3.081-9.404 10.053.162 3.894 1.783 9.242 9.404 9.405zm97.61 26.917h3.73V50.809h-3.73v21.566zm-7.134-6.163l2.108 6.163h3.891l-7.459-21.566h-4.701l-6.324 18.322-6.161-7.784 8.27-10.538h-4.379L122.9 61.022V50.81h-3.729v21.566h3.729v-10.54l7.945 10.54h4.377l2.109-6.163h7.946zm-4.054-11.999l3.079 8.92h-5.998l2.919-8.92zm38.264 45.725l-3.728-15.728h-6.65v21.727h3.731V87.452l4.703 18.485h3.89l4.703-18.485v18.485h3.565V84.21h-6.322l-3.892 15.728zm19.622-15.728l-7.459 21.727h3.728l1.946-6.322h7.945l2.108 6.322h3.89l-7.459-21.727h-4.699zm-.814 12.486l2.919-9.082 3.08 9.082h-5.999zm28.215 4.214l-8.593-16.7h-5.027v21.727h3.565V89.56l8.593 16.377h5.028V84.21h-3.566v16.7zm71.018 1.785h-8.918v-5.999h6.484v-3.245h-6.484v-5.999h8.107V84.21h-11.838v21.727h12.649v-3.242zM263.314 84.21h-.648v16.862l-8.592-16.862h-5.028v18.485h-11.349v-5.999h6.647v-3.245h-6.647v-5.999h8.107V84.21h-11.838v21.727h18.645V89.4l8.597 16.537h5.024V87.452h6.65v18.485h3.727V87.452h6.488l-.162-3.242h-19.621zm-99.555 10.863c1.137-1.133 2.108-2.594 2.108-4.702 0-1.946-.971-3.565-2.108-4.538-1.297-1.138-3.08-1.623-6.322-1.623h-6.161v18.485h-11.512v-5.999h6.648v-3.245h-6.648v-5.999h8.107V84.21h-11.836v21.727h18.97v-9.24h1.784c1.785 2.756 5.513 9.24 5.513 9.24h4.379l-5.84-9.567c1.298-.163 2.109-.648 2.918-1.297zm-8.754-1.457v-6.164h3.08c2.922 0 4.054 1.137 4.054 2.919 0 2.108-1.133 3.245-4.054 3.245h-3.08zm38.914-30.323h1.943c1.623 2.594 5.351 9.082 5.351 9.082h4.379l-5.836-9.407c1.296-.323 2.27-.81 2.919-1.458 1.133-.973 2.108-2.594 2.108-4.54 0-2.107-.812-3.567-2.108-4.54-1.3-1.136-3.08-1.621-6.162-1.621h-6.325v18.484h-11.511v-6.16h6.65V60.05h-6.65V53.89h8.269v-3.08h-11.835v21.567h18.808v-9.084zm0-3.404v-6h3.243c2.756 0 3.89 1.136 3.89 3.08 0 2.11-1.134 3.082-3.89 3.082h-3.243v-.162zm-62.262 25.944c-1.298-1.138-3.081-1.623-6.163-1.623h-6.323v21.727h3.729v-8.918h2.594c3.082 0 4.865-.485 6.163-1.622 1.134-1.134 2.107-2.757 2.107-4.865a6.123 6.123 0 00-2.107-4.7zm-5.676 7.946H122.9v-6.325h3.081c2.919 0 4.055 1.3 4.055 3.08 0 1.945-1.298 3.245-4.055 3.245zm46.699-27.567c0-3.08-1.946-5.026-5.676-6.486-2.919-.973-4.379-1.783-4.379-3.567 0-1.298 1.299-2.756 4.054-2.756 1.782 0 3.728.648 4.539 1.135v-3.081c-.811-.486-2.757-.973-4.539-.973-4.702 0-7.784 2.594-7.784 5.998 0 3.244 2.434 5.026 5.999 6.324 2.757.973 4.053 1.946 4.053 3.73 0 1.783-1.62 3.08-4.214 3.08-1.946 0-4.541-.649-5.836-1.622v3.405c1.134.648 3.405 1.3 5.676 1.3 5.513 0 8.107-3.08 8.107-6.487zm127.442 35.183c0-2.105 1.623-3.728 3.728-3.728 2.108 0 3.731 1.623 3.731 3.728a3.673 3.673 0 01-3.731 3.731c-2.105.002-3.728-1.621-3.728-3.731zm3.728 4.542c2.433 0 4.541-1.946 4.541-4.542s-2.108-4.538-4.541-4.538c-2.434 0-4.539 1.942-4.539 4.538s2.107 4.542 4.539 4.542zm-.972-4.217h.972l1.299 2.271h.972l-1.623-2.271c.812-.162 1.46-.486 1.46-1.457 0-.971-.648-1.46-1.946-1.46h-1.942v5.188h.81v-2.271h-.002zm0-.648v-1.62h1.134c.486 0 1.137.163 1.137.811 0 .811-.651.811-1.299.811h-.972v-.002z" clip-rule="evenodd"/></svg>