<svg xmlns="http://www.w3.org/2000/svg" width="321" height="132" fill="none"><path fill="#000" fill-rule="evenodd" d="M54.099 88.643h13.1V43.856h-13.1v44.787zm23.543 0h33.907v-8.904H90.742v-9.166h18.238v-8.645H90.742V52.76h20.807v-8.905H77.642v44.787zm69.744-18.202l-11.559-26.585h-17.082v44.787h10.532V61.928l11.559 26.715h8.605l12.458-27.37v27.37h13.1V43.856h-15.541L147.386 70.44zm110.827.916l-16.441-27.501h-14.386v44.787h9.247v-27.63l16.568 27.63h14.259V43.856h-9.247v27.5zm-72.92 17.286h33.905v-8.904h-20.805v-9.166h18.236v-8.645h-18.236V52.76h20.805v-8.905h-33.905v44.787zM39.977 64.417c-3.724-1.702-9.503-4.714-13.486-6.547-3.74-1.723-3.853-10.739 17.723-4.06v-8.512c-4.495-1.572-16.823-4.585-26.07.655-9.248 5.238-7.064 18.203 0 22.526 3.081 1.701 7.32 3.273 12.715 5.63 4.469 1.953 7.192 11.918-18.367 5.108v8.775c5.265 1.964 24.53 4.06 30.18-2.359 7.057-8.012 3.855-18.465-2.695-21.216zm262.732 0c-3.725-1.702-9.503-4.714-13.484-6.547-3.742-1.723-3.853-10.739 17.721-4.06v-8.512c-4.494-1.572-16.822-4.585-26.069.655-9.247 5.238-7.065 18.203 0 22.526 3.082 1.701 7.319 3.273 12.715 5.63 4.468 1.953 7.192 11.918-18.368 5.108v8.775c5.267 1.964 24.534 4.06 30.182-2.359 7.056-8.012 3.853-18.465-2.697-21.216z" clip-rule="evenodd"/></svg>