<svg xmlns="http://www.w3.org/2000/svg" width="320" height="131" fill="none"><path fill="#FA110D" d="M51.99 59.753c.37-.307.803-.401 1.303 0 .087.082.16.18.21.289l7.892 17.468c.31.778.325 1.662-.276 2.574-.659.903-1.488 1.17-2.316 1.164h-13.57a1.967 1.967 0 01-.763-.163 2.106 2.106 0 01-.649-.433c-.583-.606-.764-1.376-.477-2.18L51.78 60.04a.943.943 0 01.21-.287zm-32.65 38.26a5.483 5.483 0 01-.73 1.005 5.36 5.36 0 01-2.038 1.391l-6.168 2.216a5.243 5.243 0 00-1.635.947c-.48.415-.878.916-1.174 1.477a5.543 5.543 0 00-.55 1.69c-.077.52-.05.938.042 1.34a3.634 3.634 0 001.298 2.057 3.667 3.667 0 002.302.785l24.866.013a3.53 3.53 0 001.165-.201 3.563 3.563 0 001.033-.578 3.495 3.495 0 001.227-1.978c.176-.778.063-1.811-.35-2.844a5.02 5.02 0 00-.922-1.442c-.854-.918-2.038-1.426-3.083-2.102a2.204 2.204 0 01-.763-3.002l1.796-2.935c.196-.322.467-.593.766-.823.3-.23.639-.41 1.002-.506.363-.096.743-.03 1.121-.03h28.457c.494 0 .99.061 1.45.24.466.186.888.462 1.244.814.355.35.657.762.845 1.225l5.031 12.388c.137.335.37.629.63.881.556.533 1.275.825 1.962.839l28.717.012c.538 0 1.076-.086 1.578-.278a4.197 4.197 0 001.365-.838c1.213-1.101 1.609-2.765 1.288-4.21a4.534 4.534 0 00-.507-1.289 4.53 4.53 0 00-.873-1.081 4.23 4.23 0 00-1.16-.762l-3.643-1.548c-.675-.284-1.291-.698-1.869-1.148-.58-.45-1.108-.963-1.576-1.528-.468-.565-.919-1.158-1.208-1.83L69.484 24.598c-.2-.468-.585-.836-.973-1.166-.812-.69-1.823-1.064-2.796-1.074l-27.46.038a3.992 3.992 0 00-3.875 2.894c-.265.834-.176 2.017.328 3.186a5.182 5.182 0 001.12 1.605c.47.46 1.03.822 1.632 1.088l3.563 1.575c.359.158.72.315 1.041.539.323.223.615.488.869.787.253.299.49.621.635.984l1.745 4.351c.394 1.165.329 2.48-.314 3.726l-25.66 54.881zm161.578-23.881c.327.255.607.567.957 1.075.348.51.765 1.215 1.166 1.799.399.583.783 1.042 1.246 1.406.947.74 2.196 1.046 3.353.89a4.604 4.604 0 001.679-.565c.515-.296.99-.678 1.337-1.16l10.661-14.775c.679-.968.949-2.172.837-3.302a4.985 4.985 0 00-1.475-3.07c-1.38-1.314-3.106-1.707-4.82-1.255-.554.158-1.077.418-2.196 1.123-1.117.705-2.83 1.854-3.979 2.586-1.15.733-1.734 1.047-2.345 1.3-1.241.496-2.56.793-3.86.824H156.18l-.01-25.345 27.382-.01c1.976-.015 4.024.299 6.007 1.067.955.368 1.887.807 2.741 1.37l8.295 5.454c1.445.992 3.211 1.154 4.883-.17.709-.63 1.495-1.614 2.048-2.452.756-1.206.872-2.371.468-3.632a4.557 4.557 0 00-.573-1.098l-7.669-11.071a6.623 6.623 0 00-1.388-1.482c-1.123-.864-2.476-1.322-3.785-1.33l-68.48.11c-.59 0-1.187-.061-1.752.11-.565.171-1.09.477-1.544.864a4.801 4.801 0 00-1.554 4.829c.146.576.398 1.121.743 1.606.345.484.771.917 1.276 1.228l2.831 1.743c.335.203.633.46.884.76.499.61.771 1.373.768 2.161l.032 60.72a4.765 4.765 0 01-.301 1.688c-.409 1.03-1.032 1.811-2.427 2.568-.659.37-1.504.774-2.178 1.17-.673.392-1.177.775-1.583 1.244-.841.973-1.219 2.268-1.122 3.474a4.823 4.823 0 001.645 3.266c.981.871 2.261 1.219 3.466 1.181l68.612.008c.751 0 1.504-.079 2.223-.293a7.13 7.13 0 002.024-.966c.618-.424 1.186-.935 1.625-1.544l8.213-11.355c.906-1.273 1.129-2.807.536-4.329a4.665 4.665 0 00-.79-1.291 4.262 4.262 0 00-1.287-1.005c-1.122-.603-2.806-.934-4.271-.536-.732.183-1.399.55-2.041.947l-9.1 5.643c-1.557.966-3.449 1.243-5.226 1.598-1.79.361-3.611.543-5.437.542L156.17 98.4l.01-24.845h23.645c.414 0 .767.326 1.093.578zm106.489-50.368a1.765 1.765 0 01-1.069.305c-.188-.01-.373-.049-.725-.172-.352-.123-.868-.328-1.387-.527-.52-.199-1.046-.39-3.9-.943-2.856-.552-8.042-1.464-13.238-1.415-5.196.05-10.403 1.061-15.306 2.878a50.943 50.943 0 00-13.373 7.439 45.1 45.1 0 00-9.6 10.156 46.884 46.884 0 00-6.021 12.245 47.306 47.306 0 00-2.23 13.327c-.096 4.434.454 8.75 1.651 12.88a40.474 40.474 0 005.47 11.614c2.428 3.538 5.437 6.663 8.078 8.934 2.64 2.268 4.914 3.682 7.265 4.932a57.57 57.57 0 007.274 3.266c2.495.915 5.06 1.656 8.692 2.271 3.634.615 8.337 1.107 13.036 1.04a59.636 59.636 0 0013.949-1.853c4.552-1.165 8.962-2.868 12.422-4.485a59.174 59.174 0 007.808-4.367c1.838-1.216 3.002-2.115 3.676-2.68.675-.564.861-.793 1.012-1.046.152-.252.27-.522.348-.803.077-.28.112-.575.142-1.025.032-.452.057-1.058-.053-1.64a3.419 3.419 0 00-.774-1.62c-.422-.493-1.019-.928-1.409-1.262-.783-.68-.865-1.062-1.042-1.615a3.656 3.656 0 01-.096-.861l-.038-11.623a5.34 5.34 0 011.354-3.6l2.549-2.865a4.628 4.628 0 001.122-3.267 4.649 4.649 0 00-1.449-3.136 4.675 4.675 0 00-3.217-1.27l-29.949.004c-.5 0-.996.115-1.463.298-.465.185-.894.45-1.268.783a4.27 4.27 0 00-1.326 4.076 4.278 4.278 0 001.575 2.478c1.118 1.085 2.52 1.844 3.293 2.498.775.657 1.081 1.01 1.331 1.407.515.807.74 1.744.724 2.657l-.005 15.431c0 .65-.096 1.302-.294 1.923a6.19 6.19 0 01-.877 1.736 6.49 6.49 0 01-1.37 1.39c-.524.393-1.106.712-2.468 1.066-1.362.357-3.504.746-5.651.743a18.684 18.684 0 01-6.327-1.139 19.014 19.014 0 01-5.59-3.183c-1.66-1.365-3.076-3.024-4.141-4.656-1.065-1.637-1.781-3.254-2.417-4.896a52.033 52.033 0 01-1.655-5.002c-.466-1.69-.841-3.41-1.145-6.278-.302-2.864-.533-6.878-.198-10.85a44.396 44.396 0 012.624-11.66c1.392-3.754 3.273-7.329 5.04-9.87 1.764-2.54 3.413-4.046 5.279-5.203 3.694-2.307 8.323-3.201 12.632-2.29 2.136.446 4.172 1.325 6.313 2.587 2.14 1.262 4.384 2.907 6.579 4.608a129.368 129.368 0 016.415 5.292c.449.46.973.839 1.55 1.123a5.66 5.66 0 003.747.43 5.63 5.63 0 004.365-5.605 23.24 23.24 0 00-1.282-6.43c-.367-1.035-.761-2.067-1.311-3.017L294.25 21.66a3.403 3.403 0 00-.808-.945c-1.006-.779-2.283-.959-3.538-.354-.377.186-.72.442-1.017.874-.297.432-.547 1.042-.713 1.431-.166.39-.248.561-.36.712-.113.15-.251.28-.407.386z"/></svg>