<?xml version="1.0" standalone="no"?>
<!DOCTYPE svg PUBLIC "-//W3C//DTD SVG 20010904//EN"
 "http://www.w3.org/TR/2001/REC-SVG-20010904/DTD/svg10.dtd">
<svg version="1.0" xmlns="http://www.w3.org/2000/svg"
 width="700.000000pt" height="700.000000pt" viewBox="0 0 700.000000 700.000000"
 preserveAspectRatio="xMidYMid meet">
<metadata>
Created by potrace 1.14, written by Peter Selinger 2001-2017
</metadata>
<g transform="translate(0.000000,700.000000) scale(0.100000,-0.100000)"
fill="#000000" stroke="none">
<path d="M3435 6863 c-32 -71 -82 -177 -111 -238 -28 -60 -68 -144 -87 -185
-19 -41 -62 -133 -96 -203 -34 -71 -61 -130 -61 -132 0 -2 -34 -73 -75 -160
-41 -86 -75 -158 -75 -159 0 -2 -29 -64 -64 -137 -35 -74 -77 -163 -94 -199
-56 -123 -180 -385 -232 -495 -29 -60 -67 -143 -86 -183 -35 -76 -36 -78 -99
-87 -150 -22 -281 -42 -325 -50 -14 -2 -45 -7 -70 -10 -25 -3 -70 -10 -100
-15 -30 -5 -77 -12 -105 -16 -27 -3 -59 -8 -70 -10 -10 -2 -37 -6 -60 -9 -22
-4 -107 -17 -190 -30 -82 -12 -172 -26 -198 -30 -27 -3 -58 -8 -70 -11 -12 -2
-39 -6 -62 -9 -150 -22 -372 -56 -385 -60 -8 -2 -37 -7 -65 -10 -84 -11 -131
-18 -300 -45 -66 -10 -142 -22 -170 -25 -27 -4 -80 -12 -117 -18 l-67 -12 162
-166 c467 -478 781 -800 914 -936 201 -207 660 -676 668 -684 3 -4 2 -33 -4
-65 -6 -33 -13 -72 -15 -89 -3 -16 -7 -43 -10 -60 -13 -78 -68 -419 -96 -590
-17 -104 -33 -203 -36 -220 -2 -16 -9 -55 -14 -85 -5 -30 -11 -68 -14 -85 -3
-16 -16 -102 -31 -190 -14 -88 -33 -203 -41 -255 -20 -122 -23 -141 -28 -165
-2 -11 -9 -55 -16 -98 -13 -85 -14 -92 -29 -182 -6 -33 -13 -76 -16 -95 -4
-19 -8 -50 -11 -67 -2 -18 -10 -70 -18 -116 -8 -47 -18 -106 -21 -132 l-7 -47
49 28 c26 15 62 35 78 44 17 10 57 32 90 50 33 18 135 75 228 127 92 51 169
93 172 93 3 0 22 10 43 23 20 13 66 40 102 59 36 19 193 106 350 193 157 87
319 176 360 198 41 22 80 44 85 48 6 4 51 29 100 55 50 25 97 53 106 60 8 8
19 14 22 14 4 0 87 45 186 100 99 55 185 100 191 100 7 0 36 -13 64 -29 28
-16 74 -41 101 -56 28 -15 129 -71 225 -124 96 -54 182 -100 190 -104 8 -4 29
-15 45 -25 17 -10 62 -36 100 -56 39 -21 75 -42 80 -46 6 -4 51 -29 100 -55
50 -27 108 -58 130 -71 185 -102 329 -182 375 -207 30 -17 89 -49 130 -72 41
-23 100 -56 130 -72 30 -17 98 -54 150 -83 52 -29 120 -66 150 -83 30 -16 86
-47 124 -69 l68 -38 -7 46 c-3 25 -8 54 -10 64 -2 9 -6 35 -9 56 -4 22 -9 53
-11 69 -3 17 -7 44 -10 60 -2 17 -7 41 -9 55 -3 14 -8 43 -11 65 -12 87 -65
413 -74 460 -6 28 -17 95 -26 150 -8 55 -17 111 -20 125 -4 25 -24 147 -30
185 -1 11 -8 52 -14 90 -7 39 -14 81 -16 95 -2 14 -14 84 -25 155 -12 72 -23
141 -25 155 -2 14 -19 120 -39 235 -19 116 -37 224 -39 240 -3 17 -12 75 -21
129 -9 54 -14 102 -10 105 13 14 599 613 689 706 54 55 233 240 400 410 535
548 653 670 652 672 -2 1 -55 10 -122 19 -27 3 -59 8 -70 10 -11 2 -51 9 -90
14 -38 6 -81 12 -95 15 -14 2 -45 7 -70 10 -25 3 -52 8 -60 10 -8 2 -35 7 -60
10 -25 2 -56 7 -70 10 -14 3 -45 7 -70 10 -25 3 -52 7 -60 10 -8 2 -36 6 -61
9 -26 4 -132 19 -235 36 -104 16 -211 32 -239 36 -27 3 -57 8 -67 9 -9 2 -38
7 -65 11 -26 3 -57 8 -68 10 -11 2 -67 11 -125 20 -141 21 -139 21 -190 28
-25 3 -70 10 -100 16 -30 5 -75 12 -100 15 -25 3 -56 8 -70 10 -61 10 -238 37
-270 41 -57 8 -59 10 -107 111 -52 112 -91 196 -158 338 -26 55 -62 132 -80
170 -123 262 -191 408 -215 460 -15 33 -48 103 -73 155 -25 52 -64 136 -87
185 -77 164 -262 558 -312 665 -27 58 -61 131 -76 163 -14 31 -29 57 -32 57
-4 0 -33 -57 -65 -127z"/>
</g>
</svg>
